<svg version="1.1" id="Layer_1" xmlns="http://www.w3.org/2000/svg" xmlns:xlink="http://www.w3.org/1999/xlink" x="0px" y="0px"
	 width="100%" viewBox="0 0 2048 2048" enable-background="new 0 0 2048 2048" xml:space="preserve">
<path fill="#F3E4D1" opacity="1.000000" stroke="none" 
	d="
M1344.000000,2049.000000 
	C896.000000,2049.000000 448.500000,2049.000000 1.000000,2049.000000 
	C1.000000,1366.333374 1.000000,683.666687 1.000000,1.000000 
	C683.666687,1.000000 1366.333374,1.000000 2049.000000,1.000000 
	C2049.000000,683.666687 2049.000000,1366.333374 2049.000000,2049.000000 
	C1814.166626,2049.000000 1579.333374,2049.000000 1344.000000,2049.000000 
M609.002441,1321.001587 
	C609.002441,1321.001587 608.956543,1321.021362 608.741516,1320.351562 
	C603.909729,1315.015991 603.180115,1308.469971 603.182373,1301.684448 
	C603.199829,1249.028687 603.203125,1196.372925 603.210815,1143.717163 
	C603.210999,1142.088013 603.210815,1140.458862 603.210815,1138.611816 
	C592.630432,1138.611816 582.575928,1138.611816 572.373413,1138.611816 
	C572.229187,1139.535156 572.042847,1140.170776 572.042969,1140.806396 
	C572.052124,1196.627686 571.873291,1252.450562 572.354736,1308.267944 
	C572.414856,1315.233154 575.975464,1322.167969 577.969666,1329.031616 
	C577.969666,1329.031616 577.877686,1329.075073 577.968018,1329.778076 
	C580.458557,1333.281982 582.652954,1337.048828 585.490051,1340.245239 
	C599.010681,1355.477905 621.819275,1361.163086 639.683533,1353.736694 
	C640.108032,1353.482666 640.532471,1353.228516 641.591492,1352.954468 
	C645.807922,1350.335083 650.024353,1347.715576 654.795532,1344.954224 
	C655.171326,1344.538086 655.547058,1344.122070 656.551270,1343.559570 
	C665.479370,1334.974854 671.808960,1324.732178 672.291077,1312.268921 
	C672.964355,1294.866333 672.439880,1277.417603 672.661499,1259.081421 
	C672.583618,1246.725220 672.505798,1234.369019 672.687561,1221.107300 
	C672.601013,1210.067627 672.514465,1199.028076 672.661316,1187.081299 
	C672.601746,1171.397339 672.542175,1155.713257 672.586243,1139.282715 
	C665.535645,1138.980835 658.486450,1138.636719 651.433777,1138.395630 
	C648.205688,1138.285278 644.970703,1138.376953 641.599731,1138.376953 
	C641.599731,1140.284058 641.599731,1141.279297 641.599792,1142.274658 
	C641.600159,1195.876465 641.599121,1249.478271 641.611389,1303.080078 
	C641.611633,1304.069092 641.769348,1305.058105 641.586975,1306.679443 
	C641.463623,1307.807495 641.340332,1308.935669 640.877747,1310.687256 
	C638.113037,1320.479736 632.189148,1325.936768 622.916382,1325.445923 
	C618.205566,1325.196655 613.619629,1322.587280 609.002441,1321.001587 
M968.967773,505.769104 
	C918.487915,509.894623 881.310913,534.972290 856.460815,578.431396 
	C844.799255,598.825806 840.925232,621.567261 840.893250,644.892273 
	C840.770691,734.224976 840.697937,823.557983 840.751404,912.890747 
	C840.767578,939.996521 845.490479,966.214905 860.573669,989.238708 
	C886.552429,1028.894165 922.928894,1052.036621 970.899475,1054.564819 
	C1009.931580,1056.621948 1043.327515,1044.633179 1066.744995,1011.716370 
	C1087.322998,982.790955 1094.079590,950.982971 1083.656250,916.460938 
	C1078.941040,900.844238 1070.047607,887.303223 1061.317261,873.665955 
	C1032.226318,828.223694 1003.240295,782.712585 974.528381,737.030212 
	C960.802002,715.190735 947.292419,693.184814 934.572632,670.750732 
	C919.879028,644.835693 914.287415,616.946472 920.448181,587.371582 
	C927.386414,554.063904 946.850525,529.375122 974.299377,510.338837 
	C976.229736,509.000061 978.211121,507.734833 981.257690,505.712677 
	C976.432739,505.712677 973.153992,505.712677 968.967773,505.769104 
M1053.016846,783.582336 
	C1057.616455,790.722107 1062.286377,797.817749 1066.803467,805.009338 
	C1085.397583,834.612549 1104.724609,863.791504 1119.403442,895.668396 
	C1146.155884,953.764771 1127.164917,1017.755920 1073.143677,1051.555664 
	C1072.007080,1052.266846 1071.006836,1053.196289 1068.994873,1054.761353 
	C1092.239624,1053.159302 1112.450439,1046.685913 1128.124756,1030.894165 
	C1159.454224,999.330017 1167.731567,960.760437 1158.068237,918.416382 
	C1151.837769,891.115234 1138.795044,866.197876 1124.440918,842.363770 
	C1098.253052,798.880493 1071.087891,755.984802 1044.245483,712.896973 
	C1032.713379,694.385620 1020.885864,676.058533 1009.339355,657.556091 
	C988.130798,623.571167 991.601807,584.694824 1019.003723,557.614319 
	C1040.128906,536.736877 1066.631714,531.572388 1094.519531,537.635376 
	C1140.762451,547.688904 1176.484863,582.860840 1177.572144,640.881958 
	C1177.837524,655.041260 1177.546997,669.211304 1177.477417,683.376221 
	C1177.469604,684.962036 1177.234131,686.546753 1177.085083,688.365234 
	C1164.193604,688.365234 1151.874878,688.299011 1139.557861,688.409180 
	C1136.251465,688.438721 1136.292114,686.486328 1136.302979,684.171143 
	C1136.346802,674.838928 1136.271118,665.505798 1136.360962,656.174133 
	C1136.489258,642.829041 1136.235718,629.581238 1132.993286,616.467529 
	C1123.354614,577.484924 1094.836182,555.875732 1055.394165,558.233826 
	C1047.485596,558.706604 1039.871216,560.420898 1033.730225,566.633789 
	C1034.602417,567.009277 1034.892334,567.206787 1035.205444,567.255737 
	C1036.357056,567.435669 1037.517944,567.555359 1038.672607,567.717224 
	C1070.188477,572.135254 1090.286133,590.586243 1101.535400,619.467590 
	C1107.179077,633.956970 1105.868896,649.315674 1105.845947,664.460327 
	C1105.818359,682.583557 1105.839478,700.706909 1105.839478,719.026001 
	C1139.965820,719.026001 1174.014648,719.026001 1208.303223,719.026001 
	C1208.303223,694.265991 1208.522583,669.949829 1208.190063,645.641235 
	C1208.065308,636.515808 1207.141113,627.333923 1205.758423,618.303833 
	C1196.193726,555.840332 1136.824219,500.027191 1065.695435,505.994995 
	C1025.839111,509.338959 994.229248,527.842529 976.376648,564.512207 
	C959.329346,599.527466 959.347290,634.939758 980.721497,668.886047 
	C1004.672852,706.925110 1028.666016,744.937927 1053.016846,783.582336 
M1499.732178,1206.499756 
	C1499.732178,1255.787598 1499.732178,1305.075562 1499.732178,1354.663452 
	C1510.125244,1354.663452 1520.038940,1354.663452 1530.728516,1354.663452 
	C1530.728516,1311.958130 1530.728516,1269.386230 1530.728516,1226.814209 
	C1533.156372,1230.227051 1534.522095,1233.751343 1535.816528,1237.301636 
	C1549.670776,1275.300415 1563.493896,1313.310791 1577.437500,1351.276855 
	C1577.961182,1352.702759 1579.590454,1354.715332 1580.759888,1354.753418 
	C1589.694946,1355.044678 1598.643921,1354.913208 1607.695679,1354.913208 
	C1607.695679,1282.515015 1607.695679,1210.661011 1607.695679,1138.827881 
	C1597.294189,1138.827881 1587.255249,1138.827881 1576.664795,1138.827881 
	C1576.664795,1181.744263 1576.664795,1224.213379 1576.664795,1266.682495 
	C1575.461670,1265.936279 1575.027710,1265.101685 1574.711182,1264.224487 
	C1567.197388,1243.403442 1559.687256,1222.580933 1552.195557,1201.751953 
	C1545.154419,1182.175171 1538.170410,1162.577759 1531.043945,1143.032227 
	C1530.429199,1141.346313 1528.982178,1138.712769 1527.838501,1138.668457 
	C1518.601318,1138.310791 1509.344116,1138.467896 1499.732666,1138.467896 
	C1499.732666,1161.229004 1499.732666,1183.364380 1499.732178,1206.499756 
M1134.500000,1138.159912 
	C1126.892212,1138.159912 1119.284302,1138.159912 1111.208984,1138.159912 
	C1111.208984,1140.447876 1111.209229,1142.071655 1111.209106,1143.695435 
	C1111.200562,1212.342163 1111.191772,1280.988892 1111.184448,1349.635620 
	C1111.184326,1350.635254 1110.887451,1351.791260 1111.289062,1352.594238 
	C1111.775269,1353.566162 1112.846680,1354.922363 1113.685425,1354.937134 
	C1123.103760,1355.102661 1132.526123,1355.041748 1142.415283,1355.041748 
	C1142.415283,1323.927490 1142.415283,1293.513550 1142.415283,1262.507202 
	C1146.661865,1262.507202 1150.500732,1262.917969 1154.213989,1262.409790 
	C1159.622803,1261.669434 1161.586914,1264.035889 1163.081543,1268.970947 
	C1171.380615,1296.371582 1180.020508,1323.669434 1188.686035,1350.957153 
	C1189.179565,1352.511353 1190.895752,1354.791138 1192.103149,1354.829224 
	C1202.046875,1355.143188 1212.004761,1355.006714 1222.463135,1355.006714 
	C1221.942993,1353.191650 1221.639771,1351.946411 1221.231812,1350.736450 
	C1211.075562,1320.609497 1200.968384,1290.465332 1190.658203,1260.390991 
	C1189.515137,1257.056763 1190.012085,1255.426025 1193.024780,1253.583618 
	C1201.985107,1248.103638 1208.298340,1240.354492 1211.648682,1230.287598 
	C1217.789673,1211.834717 1217.375366,1193.220581 1212.724976,1174.611938 
	C1207.550415,1153.906128 1192.726685,1140.877930 1171.442749,1139.050903 
	C1159.524292,1138.027710 1147.484863,1138.410645 1134.500000,1138.159912 
M1636.166016,1297.500000 
	C1636.166016,1316.437866 1636.166016,1335.375610 1636.166016,1354.488281 
	C1637.558716,1354.654907 1638.355591,1354.836182 1639.151855,1354.832764 
	C1654.643799,1354.766235 1670.148438,1355.045532 1685.625122,1354.516357 
	C1716.303101,1353.467651 1735.416504,1335.169312 1736.033203,1304.534180 
	C1736.831299,1264.899414 1736.705444,1225.227417 1736.014282,1185.588135 
	C1735.573853,1160.330688 1718.379272,1141.254272 1694.171631,1139.318115 
	C1675.302856,1137.809082 1656.241943,1138.703003 1637.266235,1138.556396 
	C1636.997681,1138.554321 1636.726318,1138.908203 1636.166016,1139.297852 
	C1636.166016,1191.565918 1636.166016,1244.032959 1636.166016,1297.500000 
M803.123962,1165.500000 
	C803.123962,1228.580933 803.123962,1291.661865 803.123962,1354.740479 
	C813.911255,1354.740479 823.841797,1354.740479 834.180237,1354.740479 
	C834.180237,1322.654663 834.180237,1290.878174 834.180237,1258.835449 
	C847.166626,1258.835449 859.737793,1258.835449 872.923462,1258.835449 
	C872.923462,1291.030884 872.923462,1322.891724 872.923462,1354.741577 
	C883.467590,1354.741577 893.393738,1354.741577 903.460815,1354.741577 
	C903.460815,1282.550415 903.460815,1210.665039 903.460815,1138.773071 
	C893.062073,1138.773071 883.019653,1138.773071 872.597290,1138.773071 
	C872.597290,1169.641357 872.597290,1200.082886 872.597290,1230.786621 
	C859.776489,1230.786621 847.344849,1230.786621 834.307373,1230.786621 
	C834.307373,1200.053833 834.307373,1169.477783 834.307373,1138.691406 
	C823.639404,1138.691406 813.578857,1138.691406 803.123657,1138.691406 
	C803.123657,1147.552124 803.123657,1156.026123 803.123962,1165.500000 
M1239.168945,1229.500000 
	C1239.163086,1254.663696 1239.108398,1279.827637 1239.176270,1304.991089 
	C1239.201782,1314.472168 1241.142578,1323.597778 1246.078125,1331.778442 
	C1258.222168,1351.907715 1282.651367,1361.222412 1306.040894,1354.862549 
	C1328.514526,1348.751953 1343.268555,1329.727295 1343.398438,1305.738037 
	C1343.612305,1266.243530 1343.829468,1226.741821 1343.289673,1187.253418 
	C1342.999756,1166.046021 1333.336548,1150.001709 1313.303955,1141.077759 
	C1282.223999,1127.232666 1239.500244,1145.013306 1239.184082,1188.504517 
	C1239.087036,1201.835693 1239.169067,1215.168091 1239.168945,1229.500000 
M440.589081,1250.499756 
	C440.591034,1268.993286 440.514465,1287.487427 440.620117,1305.980347 
	C440.703033,1320.492188 445.495270,1333.115112 456.581512,1342.851929 
	C473.483521,1357.696533 492.782043,1360.858032 513.361572,1352.530762 
	C533.346252,1344.444092 544.138245,1328.893799 544.340759,1307.232178 
	C544.719299,1266.749634 544.527893,1226.260864 544.413879,1185.775146 
	C544.377686,1172.910400 539.570923,1161.748901 530.939209,1152.258423 
	C517.926758,1137.951050 493.196564,1132.502686 474.114746,1139.675049 
	C453.062988,1147.587891 440.794403,1164.913696 440.613007,1187.521362 
	C440.447205,1208.179565 440.587524,1228.840210 440.589081,1250.499756 
M980.177673,1301.486084 
	C979.609436,1311.834229 981.071350,1321.808960 986.318787,1330.889893 
	C997.921570,1350.968994 1022.577820,1361.169312 1044.820679,1355.259277 
	C1069.025024,1348.827881 1083.433472,1330.314453 1083.528687,1305.300903 
	C1083.612305,1283.304932 1083.552979,1261.308472 1083.532227,1239.312134 
	C1083.531128,1238.218872 1083.296021,1237.125854 1083.176880,1236.093628 
	C1064.769043,1236.093628 1046.722168,1236.093628 1028.765137,1236.093628 
	C1028.765137,1245.238159 1028.765137,1253.977295 1028.765137,1263.288818 
	C1036.899414,1263.288818 1044.627441,1263.288818 1052.577026,1263.288818 
	C1052.577026,1278.181763 1053.060913,1292.512085 1052.428101,1306.792725 
	C1051.895386,1318.812866 1043.327759,1326.017944 1031.657227,1325.724365 
	C1019.261414,1325.412598 1011.141846,1317.764404 1011.082947,1305.323242 
	C1010.897583,1266.164307 1010.887573,1227.002808 1011.217224,1187.845581 
	C1011.253906,1183.491333 1013.030640,1178.548340 1015.536316,1174.947021 
	C1020.389465,1167.971924 1030.739136,1165.767456 1039.572510,1168.648926 
	C1047.303711,1171.170898 1052.086426,1177.737549 1052.574707,1186.929199 
	C1052.809326,1191.344849 1052.615112,1195.783447 1052.615112,1199.975830 
	C1063.394165,1199.975830 1073.317139,1199.975830 1083.915771,1199.975830 
	C1083.495605,1192.143066 1083.927612,1184.530518 1082.545532,1177.262939 
	C1077.723389,1151.908813 1056.841064,1136.009521 1030.224487,1136.707153 
	C1001.074646,1137.471191 980.182434,1158.882812 980.178833,1188.009888 
	C980.174072,1225.503540 980.177673,1262.997314 980.177673,1301.486084 
M1440.307251,1212.500000 
	C1440.302002,1242.324829 1440.306152,1272.149536 1440.274536,1301.974365 
	C1440.271851,1304.466919 1440.259155,1306.997314 1439.856567,1309.445190 
	C1438.149658,1319.821411 1431.168213,1325.786255 1420.987427,1325.758911 
	C1411.227539,1325.732666 1404.249756,1319.716553 1402.511108,1309.581787 
	C1402.036255,1306.813477 1401.989746,1303.947388 1401.988037,1301.125977 
	C1401.955688,1248.807861 1401.959961,1196.489746 1401.956543,1144.171631 
	C1401.956421,1142.408325 1401.956543,1140.645142 1401.956543,1138.811768 
	C1391.279541,1138.811768 1381.270996,1138.811768 1371.039062,1138.811768 
	C1371.039062,1140.474976 1371.039062,1141.630493 1371.038940,1142.786011 
	C1371.037354,1197.603394 1370.980591,1252.421021 1371.055420,1307.238281 
	C1371.099365,1339.364502 1402.747803,1363.480103 1433.810425,1355.216431 
	C1455.930664,1349.331543 1471.131714,1330.062500 1471.177490,1307.311157 
	C1471.287720,1252.494019 1471.238281,1197.676514 1471.233765,1142.859131 
	C1471.233643,1141.433960 1471.007080,1140.008667 1470.898438,1138.729248 
	C1460.512695,1138.729248 1450.594360,1138.729248 1440.827759,1138.729248 
	C1440.564087,1139.414795 1440.344604,1139.719360 1440.344238,1140.024170 
	C1440.320923,1163.849487 1440.314819,1187.674683 1440.307251,1212.500000 
M390.893860,1200.651245 
	C400.152374,1200.651245 409.410919,1200.651245 418.905457,1200.651245 
	C418.795990,1188.803223 420.111450,1177.622925 415.377808,1166.952148 
	C407.987823,1150.293213 389.256409,1135.326172 364.073273,1136.583374 
	C341.671448,1137.701904 323.857513,1150.712158 317.436859,1172.190063 
	C313.188843,1186.400024 313.058105,1200.726318 315.835480,1215.197021 
	C318.692108,1230.080566 326.577515,1241.176270 340.285675,1247.885132 
	C344.619141,1250.005981 349.074341,1251.880859 353.494507,1253.821045 
	C361.725250,1257.433838 370.012939,1260.920288 378.195312,1264.639038 
	C383.277527,1266.948730 386.634125,1271.193726 386.879333,1276.625610 
	C387.380859,1287.736816 387.486633,1298.900024 386.995026,1310.008179 
	C386.734406,1315.897217 383.277954,1320.644531 377.834686,1323.473755 
	C361.307037,1332.064575 344.082214,1322.090210 343.587799,1303.654175 
	C343.504059,1300.531860 343.575928,1297.405396 343.575928,1294.085205 
	C333.016449,1294.085205 323.077759,1294.085205 312.372040,1294.085205 
	C312.745300,1301.455322 312.244690,1308.739624 313.620087,1315.650635 
	C318.630371,1340.826416 339.378632,1356.701660 366.471069,1356.826294 
	C394.004150,1356.952881 412.658417,1341.955322 416.873627,1314.779663 
	C418.720856,1302.870361 418.805176,1290.558594 418.432739,1278.468140 
	C418.002747,1264.507446 414.616577,1251.127563 402.253815,1242.465088 
	C396.864807,1238.689087 390.743439,1235.840088 384.697357,1233.148071 
	C375.880676,1229.222290 366.786469,1225.924805 357.899475,1222.150269 
	C352.699524,1219.941650 348.011993,1216.655884 346.655243,1210.870361 
	C344.108002,1200.008423 343.705719,1188.993408 348.097595,1178.478271 
	C351.334900,1170.727539 357.883331,1167.484253 366.126617,1167.505981 
	C374.190643,1167.527222 381.362640,1169.835938 384.315216,1177.971436 
	C386.368408,1183.628784 386.784210,1189.870483 388.079529,1195.818970 
	C388.442505,1197.485840 389.329987,1199.038696 390.893860,1200.651245 
M755.411011,1167.446899 
	C766.659241,1167.446899 777.907471,1167.446899 789.107910,1167.446899 
	C789.107910,1157.351440 789.107910,1148.096680 789.107910,1138.764893 
	C754.749023,1138.764893 720.728577,1138.764893 686.743713,1138.764893 
	C686.743713,1148.455933 686.743713,1157.700195 686.743713,1167.501709 
	C698.643494,1167.501709 710.212769,1167.501709 722.386719,1167.501709 
	C722.386719,1230.271851 722.386719,1292.481079 722.386719,1354.849731 
	C732.965698,1354.849731 742.919922,1354.849731 753.477051,1354.849731 
	C753.477051,1352.700806 753.477112,1350.742920 753.477051,1348.785034 
	C753.474548,1290.637085 753.461731,1232.489014 753.509033,1174.341064 
	C753.510864,1172.114990 754.093018,1169.889404 755.411011,1167.446899 
M1199.444702,781.054138 
	C1168.600220,781.054138 1137.755615,781.054138 1106.013672,781.054138 
	C1110.172607,787.662964 1113.793945,793.217896 1117.211792,798.895264 
	C1122.384155,807.487183 1129.949951,811.789246 1139.913330,811.872437 
	C1148.744263,811.946228 1157.576294,811.901489 1166.407837,811.907471 
	C1169.840820,811.909790 1173.273804,811.907837 1176.837036,811.907837 
	C1176.936646,813.583130 1177.045776,814.557922 1177.045288,815.532715 
	C1177.025269,858.691040 1177.251221,901.851624 1176.872192,945.006836 
	C1176.641235,971.316223 1170.913452,996.529297 1159.072876,1020.196045 
	C1158.679688,1020.981689 1158.524780,1021.886536 1158.108643,1023.215820 
	C1159.060547,1022.636292 1159.533569,1022.439209 1159.893677,1022.116150 
	C1190.403564,994.737427 1207.904541,961.138123 1208.126953,919.604431 
	C1208.365234,875.114868 1208.198730,830.622986 1208.188965,786.132141 
	C1208.188599,784.541992 1207.976318,782.951782 1207.840820,781.052246 
	C1205.040039,781.052246 1202.731812,781.052246 1199.444702,781.054138 
M753.993530,1411.420044 
	C752.287598,1420.873657 750.581665,1430.327148 748.875732,1439.780762 
	C748.472290,1439.751587 748.068848,1439.722534 747.665344,1439.693359 
	C746.441406,1429.346802 745.217407,1419.000122 743.992188,1408.642700 
	C741.003723,1408.642700 738.455444,1408.642700 735.387878,1408.642700 
	C738.227112,1427.641479 740.994690,1446.160522 743.739746,1464.529175 
	C751.480225,1465.108765 751.519897,1465.115479 752.638000,1458.560181 
	C754.145203,1449.723877 755.583923,1440.875977 757.052002,1432.032959 
	C757.455444,1432.000244 757.858887,1431.967407 758.262390,1431.934570 
	C760.187561,1442.797974 762.112793,1453.661499 764.019653,1464.421265 
	C771.696716,1465.379761 771.718018,1465.383057 772.796387,1458.286255 
	C774.147583,1449.393677 775.475159,1440.497437 776.783508,1431.598389 
	C777.891296,1424.063110 778.957336,1416.521729 780.034607,1409.033081 
	C771.817871,1407.159424 771.579895,1407.341919 770.821228,1414.691406 
	C769.924622,1423.378784 768.966492,1432.059570 768.035034,1440.743286 
	C767.642029,1440.770264 767.249023,1440.797119 766.856018,1440.824097 
	C764.842407,1430.002319 762.828796,1419.180664 760.533997,1406.848145 
	C757.755920,1408.481567 755.940308,1409.549194 753.993530,1411.420044 
M1031.018433,1435.213257 
	C1031.893066,1436.427856 1033.074219,1437.525391 1033.590820,1438.876953 
	C1036.203857,1445.713013 1038.996216,1452.513184 1041.028687,1459.527954 
	C1042.536743,1464.732178 1045.246094,1466.032104 1050.009277,1464.401611 
	C1050.009277,1445.695068 1050.009277,1427.129517 1050.009277,1408.505127 
	C1047.525513,1408.505127 1045.411499,1408.505127 1042.500977,1408.505127 
	C1042.500977,1418.491089 1042.500977,1428.240723 1042.500977,1437.990356 
	C1042.042358,1438.047485 1041.583618,1438.104614 1041.125000,1438.161621 
	C1038.147461,1429.949219 1034.811279,1421.843750 1032.320801,1413.486084 
	C1030.711182,1408.084229 1027.789673,1407.270020 1022.955933,1408.804199 
	C1022.955933,1427.437988 1022.955933,1446.000366 1022.955933,1464.661133 
	C1025.551636,1464.661133 1027.818359,1464.661133 1030.687622,1464.661133 
	C1030.687622,1454.961670 1030.687622,1445.504639 1031.018433,1435.213257 
M867.080811,1464.567871 
	C869.476624,1464.567871 871.872437,1464.567871 874.721680,1464.567871 
	C874.721680,1456.588013 874.721680,1448.997314 874.721680,1441.554565 
	C878.227234,1439.980469 879.696106,1441.293579 880.534729,1444.228516 
	C881.904053,1449.020508 883.424255,1453.770142 884.928833,1458.522461 
	C887.214966,1465.743896 887.232361,1465.738403 895.360291,1464.284546 
	C892.958679,1457.168701 890.472534,1450.142822 888.279785,1443.026489 
	C887.824341,1441.548096 887.796143,1439.021362 888.693848,1438.189087 
	C895.196899,1432.160645 894.574768,1424.801880 892.861511,1417.343628 
	C891.772400,1412.602173 888.529419,1409.195190 883.587769,1408.752197 
	C878.070374,1408.257568 872.474426,1408.638672 866.706055,1408.638672 
	C866.706055,1427.234009 866.706055,1445.502808 867.080811,1464.567871 
M1089.735474,1420.090088 
	C1091.731323,1418.744019 1094.731201,1415.825195 1095.538940,1416.340698 
	C1098.179565,1418.026245 1100.021729,1420.962646 1102.171021,1423.417969 
	C1101.882690,1423.690430 1101.594238,1423.962891 1101.305786,1424.235352 
	C1103.547363,1424.235352 1105.788940,1424.235352 1108.371582,1424.235352 
	C1108.371582,1422.445801 1108.448853,1420.973633 1108.358276,1419.511719 
	C1107.948364,1412.893799 1102.782349,1408.204224 1095.681519,1407.950195 
	C1088.209839,1407.682861 1082.107666,1411.929077 1081.875977,1418.686890 
	C1081.460083,1430.809204 1081.509521,1442.967896 1081.947144,1455.090332 
	C1082.160400,1460.996460 1088.104980,1465.245361 1094.719360,1465.389038 
	C1101.227905,1465.530273 1107.569580,1461.437134 1108.038818,1455.729370 
	C1108.630249,1448.535034 1108.181396,1441.255249 1108.181396,1434.078735 
	C1103.204834,1434.078735 1098.795776,1434.078735 1094.409546,1434.078735 
	C1094.409546,1436.463867 1094.409546,1438.512817 1094.409546,1440.582764 
	C1096.550781,1440.866211 1098.300903,1441.097900 1100.464600,1441.384277 
	C1100.464600,1444.753540 1100.477539,1447.885010 1100.461304,1451.016113 
	C1100.442261,1454.682861 1099.031128,1457.197632 1094.957031,1457.185181 
	C1090.830322,1457.172729 1089.554810,1454.522217 1089.552734,1450.920044 
	C1089.546997,1440.942627 1089.580811,1430.965088 1089.735474,1420.090088 
M940.115723,1448.606445 
	C941.381714,1452.037598 942.651123,1455.467529 943.912842,1458.900269 
	C946.345032,1465.517212 946.343262,1465.517822 954.199402,1464.382568 
	C953.960205,1463.442383 953.815491,1462.498291 953.483276,1461.625854 
	C950.342896,1453.381714 947.391357,1445.055176 943.916626,1436.953369 
	C942.121399,1432.767334 942.045654,1429.288696 944.370117,1425.259277 
	C947.393555,1420.017822 949.759521,1414.397217 952.446106,1408.862305 
	C946.895386,1407.178345 943.831421,1408.614990 941.939880,1413.718750 
	C939.733032,1419.673340 936.727112,1425.331909 934.067932,1431.118896 
	C933.618347,1431.011963 933.168823,1430.904907 932.719299,1430.797852 
	C932.719299,1423.461426 932.719299,1416.124878 932.719299,1408.629883 
	C929.700073,1408.629883 927.333740,1408.629883 925.011475,1408.629883 
	C925.011475,1427.572632 925.011475,1446.111084 925.011475,1464.593750 
	C927.678101,1464.593750 929.934509,1464.593750 932.276123,1464.593750 
	C933.895691,1456.640381 930.041199,1447.868896 937.156250,1440.800781 
	C938.143982,1443.344971 939.021484,1445.604980 940.115723,1448.606445 
M640.789368,1420.179565 
	C640.777161,1430.999878 640.638733,1441.821899 640.795288,1452.639771 
	C640.906555,1460.324585 646.639160,1465.532349 654.387634,1465.429199 
	C662.181763,1465.325439 667.591492,1460.028931 667.646301,1452.258179 
	C667.719055,1441.937500 667.725525,1431.615601 667.652100,1421.294922 
	C667.597778,1413.661255 663.250549,1408.726562 656.204102,1408.041748 
	C647.731628,1407.218384 642.411865,1411.128540 640.789368,1420.179565 
M810.050110,1413.742676 
	C809.344910,1416.439087 808.099243,1419.121826 808.031372,1421.834229 
	C807.785583,1431.653442 807.861145,1441.483276 807.958130,1451.307739 
	C808.042297,1459.842407 813.428284,1465.405029 821.388367,1465.427856 
	C829.711670,1465.451660 835.075195,1459.899780 835.123169,1451.082153 
	C835.173889,1441.756714 835.039551,1432.429565 835.160706,1423.105347 
	C835.243347,1416.741943 833.471069,1411.332764 827.141052,1408.979126 
	C820.886475,1406.653564 814.991882,1407.600342 810.050110,1413.742676 
M1178.976929,1458.443848 
	C1184.011230,1466.713013 1188.561523,1467.377441 1200.757324,1461.519531 
	C1202.719971,1466.281006 1206.478394,1465.327759 1210.777954,1464.697144 
	C1208.881958,1461.382446 1205.987183,1458.533936 1205.984863,1455.682861 
	C1205.982544,1452.942383 1208.974854,1450.199341 1210.808960,1447.199463 
	C1209.079468,1446.092529 1207.625366,1445.161987 1206.150146,1444.217773 
	C1204.502686,1446.165283 1203.159546,1447.753052 1201.557495,1449.646851 
	C1200.117554,1447.348511 1198.960327,1445.536133 1197.838745,1443.701782 
	C1196.727661,1441.884521 1195.652588,1440.044922 1194.694824,1438.438599 
	C1196.966675,1435.313843 1199.273926,1432.665161 1200.978271,1429.672852 
	C1203.511719,1425.224854 1203.318970,1420.714600 1199.825806,1416.703369 
	C1197.119141,1413.595215 1190.529663,1412.571167 1186.351440,1414.628296 
	C1181.664795,1416.935791 1180.158813,1421.090332 1180.833862,1425.890991 
	C1181.241211,1428.786499 1182.217773,1431.764160 1183.645874,1434.307861 
	C1185.038452,1436.788330 1184.960571,1438.328369 1182.953125,1440.336060 
	C1178.071167,1445.218872 1176.578247,1451.090698 1178.976929,1458.443848 
M1338.270508,1440.550049 
	C1336.524536,1448.452026 1334.778442,1456.354004 1332.949951,1464.629028 
	C1335.942627,1464.629028 1338.358154,1464.629028 1339.995361,1464.629028 
	C1344.502808,1461.468384 1338.889893,1453.700806 1347.554932,1452.702637 
	C1358.067871,1451.491455 1354.463379,1460.404785 1357.180542,1464.514526 
	C1359.741699,1464.514526 1362.138672,1464.514526 1364.976685,1464.514526 
	C1360.881714,1446.202026 1356.949707,1428.347046 1352.754028,1410.554199 
	C1352.512573,1409.529907 1350.090454,1408.369751 1348.745483,1408.441406 
	C1347.436523,1408.511108 1345.367676,1409.871704 1345.076416,1411.029297 
	C1342.679810,1420.548096 1340.619995,1430.151733 1338.270508,1440.550049 
M1279.711914,1425.610840 
	C1279.725708,1434.429810 1279.844971,1443.250488 1279.713623,1452.067261 
	C1279.635132,1457.334106 1281.107544,1461.725586 1286.095093,1464.013184 
	C1291.059570,1466.290161 1296.171997,1466.438110 1300.694458,1462.826294 
	C1305.065186,1459.335693 1306.768188,1454.777832 1305.485840,1449.143555 
	C1302.844360,1449.143555 1300.439331,1449.143555 1297.976196,1449.143555 
	C1297.533447,1453.046021 1297.766724,1457.412231 1292.421143,1457.153076 
	C1286.931519,1456.886963 1287.807983,1452.446167 1287.766724,1448.901001 
	C1287.669800,1440.582397 1287.616943,1432.261108 1287.721924,1423.943237 
	C1287.764771,1420.537964 1287.317383,1416.283081 1292.414185,1416.134888 
	C1297.260864,1415.993774 1297.616943,1419.831665 1297.838623,1423.479492 
	C1297.855713,1423.760742 1298.173950,1424.023560 1298.300659,1424.216553 
	C1300.779541,1424.216553 1303.179565,1424.216553 1305.528442,1424.216553 
	C1305.696411,1423.352539 1305.861450,1422.867310 1305.875488,1422.377686 
	C1306.121216,1413.839722 1301.259277,1408.151978 1293.551147,1407.935913 
	C1284.611572,1407.685425 1279.829712,1412.428955 1279.723267,1421.658081 
	C1279.711792,1422.656372 1279.723267,1423.654785 1279.711914,1425.610840 
M599.786133,1456.571289 
	C594.114624,1457.724976 592.300171,1456.484375 592.218018,1450.883911 
	C592.086243,1441.898682 592.116272,1432.909546 592.210999,1423.923584 
	C592.247009,1420.502075 591.784058,1416.304321 596.890076,1416.137817 
	C601.799683,1415.977661 602.036743,1419.858276 602.300842,1423.463867 
	C602.320374,1423.731201 602.650574,1423.975586 602.808655,1424.192505 
	C605.249329,1424.192505 607.637573,1424.192505 609.972839,1424.192505 
	C610.900269,1414.311768 606.643616,1408.437622 598.528931,1407.969482 
	C589.162231,1407.429321 584.226929,1412.276245 584.176575,1422.193359 
	C584.125916,1432.178711 584.224182,1442.165161 584.144287,1452.150024 
	C584.102173,1457.411865 585.749329,1461.794556 590.698303,1464.052002 
	C595.669861,1466.319580 600.777283,1466.371582 605.297729,1462.750854 
	C609.720276,1459.208496 611.114624,1454.579102 609.925293,1449.226074 
	C607.213623,1449.226074 604.825256,1449.226074 602.967834,1449.226074 
	C602.015869,1451.862793 601.249023,1453.986694 599.786133,1456.571289 
M1446.872925,1453.478882 
	C1446.872925,1457.097778 1446.872925,1460.716797 1446.872925,1464.513672 
	C1455.104980,1464.513672 1462.818237,1464.513672 1470.655518,1464.513672 
	C1470.655518,1461.913696 1470.655518,1459.648804 1470.655518,1456.801025 
	C1465.342773,1456.801025 1460.275024,1456.801025 1454.840332,1456.801025 
	C1454.840332,1452.085205 1454.965088,1447.944824 1454.798340,1443.816162 
	C1454.679199,1440.867065 1456.004761,1440.085693 1458.694214,1440.222168 
	C1461.956177,1440.387817 1465.232788,1440.261597 1468.527588,1440.261597 
	C1468.527588,1437.415771 1468.527588,1435.186646 1468.527588,1432.503418 
	C1463.921265,1432.503418 1459.656982,1432.503418 1454.839478,1432.503418 
	C1454.839478,1427.929565 1455.001099,1423.803711 1454.787598,1419.697266 
	C1454.620483,1416.480103 1456.059326,1415.715698 1458.946045,1415.849609 
	C1462.840454,1416.030518 1466.749634,1415.894653 1470.582275,1415.894653 
	C1470.582275,1412.905518 1470.582275,1410.824097 1470.582275,1408.658447 
	C1462.554199,1408.658447 1454.859985,1408.658447 1446.872925,1408.658447 
	C1446.872925,1423.552246 1446.872925,1438.019287 1446.872925,1453.478882 
M1406.444580,1440.831299 
	C1409.226929,1440.831299 1412.009277,1440.831299 1415.025146,1440.831299 
	C1415.025146,1438.078979 1415.025146,1435.819458 1415.025146,1432.960449 
	C1410.381470,1432.960449 1405.985474,1432.960449 1401.477051,1432.960449 
	C1401.477051,1427.084473 1401.477051,1421.811401 1401.477051,1416.015137 
	C1406.679077,1416.015137 1411.617310,1416.015137 1416.721558,1416.015137 
	C1416.721558,1413.126099 1416.721558,1410.768066 1416.721558,1408.593994 
	C1408.705933,1408.593994 1401.106689,1408.593994 1393.536499,1408.593994 
	C1393.536499,1427.474487 1393.536499,1446.003784 1393.536499,1464.593750 
	C1396.245483,1464.593750 1398.516479,1464.593750 1401.191406,1464.593750 
	C1401.191406,1456.723389 1401.191406,1449.097412 1401.191406,1441.230103 
	C1402.870728,1441.071045 1404.168945,1440.948242 1406.444580,1440.831299 
M990.826904,1418.542480 
	C990.826904,1415.268921 990.826904,1411.995361 990.826904,1408.618530 
	C987.784851,1408.618530 985.412659,1408.618530 983.049438,1408.618530 
	C983.049438,1427.535645 983.049438,1446.067017 983.049438,1464.593384 
	C985.723450,1464.593384 987.996765,1464.593384 990.826660,1464.593384 
	C990.826660,1449.416382 990.826660,1434.473755 990.826904,1418.542480 
M705.927795,1464.626587 
	C706.303528,1462.271362 706.679199,1459.916138 707.095337,1457.307373 
	C703.868042,1457.307373 701.336487,1457.307373 698.858154,1457.307373 
	C698.858154,1459.990112 698.858154,1462.260498 698.858154,1464.824585 
	C701.140869,1464.824585 703.118958,1464.824585 705.927795,1464.626587 
M1157.492188,1024.527588 
	C1157.492188,1024.527588 1157.522705,1024.489624 1157.492188,1024.527588 
z"/>
<path fill="#8B1B21" opacity="1.000000" stroke="none" 
	d="
M969.421509,505.740906 
	C973.153992,505.712677 976.432739,505.712677 981.257690,505.712677 
	C978.211121,507.734833 976.229736,509.000061 974.299377,510.338837 
	C946.850525,529.375122 927.386414,554.063904 920.448181,587.371582 
	C914.287415,616.946472 919.879028,644.835693 934.572632,670.750732 
	C947.292419,693.184814 960.802002,715.190735 974.528381,737.030212 
	C1003.240295,782.712585 1032.226318,828.223694 1061.317261,873.665955 
	C1070.047607,887.303223 1078.941040,900.844238 1083.656250,916.460938 
	C1094.079590,950.982971 1087.322998,982.790955 1066.744995,1011.716370 
	C1043.327515,1044.633179 1009.931580,1056.621948 970.899475,1054.564819 
	C922.928894,1052.036621 886.552429,1028.894165 860.573669,989.238708 
	C845.490479,966.214905 840.767578,939.996521 840.751404,912.890747 
	C840.697937,823.557983 840.770691,734.224976 840.893250,644.892273 
	C840.925232,621.567261 844.799255,598.825806 856.460815,578.431396 
	C881.310913,534.972290 918.487915,509.894623 969.421509,505.740906 
M893.340881,574.255920 
	C878.749023,594.119629 871.682190,616.478882 871.601135,641.022339 
	C871.300659,731.999695 871.090271,822.977295 870.857971,913.954834 
	C870.812439,931.775940 872.897705,949.260254 880.535156,965.591064 
	C899.586609,1006.327698 941.334351,1029.900391 986.516357,1025.627686 
	C987.308228,1025.552734 988.062378,1025.079224 989.161804,1024.669800 
	C956.434265,1019.862183 933.635681,1002.467712 919.859802,973.156433 
	C912.575928,957.658325 911.972595,940.979797 912.000916,924.234619 
	C912.125061,850.752441 912.176270,777.270203 912.383545,703.788330 
	C912.397217,698.948853 911.240479,694.832581 909.005859,690.556396 
	C892.895142,659.726746 884.427612,627.325317 889.973267,592.293823 
	C890.953125,586.104492 892.562500,580.014771 894.135132,573.971191 
	C894.135132,573.971191 894.302979,573.659119 894.302979,573.659119 
	C894.302979,573.659119 893.949951,573.967407 893.340881,574.255920 
M1017.849976,991.625549 
	C1051.887085,979.693970 1063.448608,940.856628 1048.679565,912.854065 
	C1043.879272,903.752625 1038.532471,894.912720 1033.010864,886.223083 
	C1007.216125,845.629272 981.280334,805.125122 955.374146,764.602234 
	C951.859253,759.104187 948.227051,753.681152 944.649109,748.223450 
	C943.631592,750.072083 943.635071,751.512024 943.631104,752.951965 
	C943.486328,805.581238 943.255493,858.210571 943.256897,910.839844 
	C943.257202,923.643921 942.543884,936.705200 944.720154,949.202209 
	C950.461060,982.169067 983.842468,1001.314636 1017.849976,991.625549 
z"/>
<path fill="#8A1B21" opacity="1.000000" stroke="none" 
	d="
M1052.828857,783.272278 
	C1028.666016,744.937927 1004.672852,706.925110 980.721497,668.886047 
	C959.347290,634.939758 959.329346,599.527466 976.376648,564.512207 
	C994.229248,527.842529 1025.839111,509.338959 1065.695435,505.994995 
	C1136.824219,500.027191 1196.193726,555.840332 1205.758423,618.303833 
	C1207.141113,627.333923 1208.065308,636.515808 1208.190063,645.641235 
	C1208.522583,669.949829 1208.303223,694.265991 1208.303223,719.026001 
	C1174.014648,719.026001 1139.965820,719.026001 1105.839478,719.026001 
	C1105.839478,700.706909 1105.818359,682.583557 1105.845947,664.460327 
	C1105.868896,649.315674 1107.179077,633.956970 1101.535400,619.467590 
	C1090.286133,590.586243 1070.188477,572.135254 1038.672607,567.717224 
	C1037.517944,567.555359 1036.357056,567.435669 1035.205444,567.255737 
	C1034.892334,567.206787 1034.602417,567.009277 1033.730225,566.633789 
	C1039.871216,560.420898 1047.485596,558.706604 1055.394165,558.233826 
	C1094.836182,555.875732 1123.354614,577.484924 1132.993286,616.467529 
	C1136.235718,629.581238 1136.489258,642.829041 1136.360962,656.174133 
	C1136.271118,665.505798 1136.346802,674.838928 1136.302979,684.171143 
	C1136.292114,686.486328 1136.251465,688.438721 1139.557861,688.409180 
	C1151.874878,688.299011 1164.193604,688.365234 1177.085083,688.365234 
	C1177.234131,686.546753 1177.469604,684.962036 1177.477417,683.376221 
	C1177.546997,669.211304 1177.837524,655.041260 1177.572144,640.881958 
	C1176.484863,582.860840 1140.762451,547.688904 1094.519531,537.635376 
	C1066.631714,531.572388 1040.128906,536.736877 1019.003723,557.614319 
	C991.601807,584.694824 988.130798,623.571167 1009.339355,657.556091 
	C1020.885864,676.058533 1032.713379,694.385620 1044.245483,712.896973 
	C1071.087891,755.984802 1098.253052,798.880493 1124.440918,842.363770 
	C1138.795044,866.197876 1151.837769,891.115234 1158.068237,918.416382 
	C1167.731567,960.760437 1159.454224,999.330017 1128.124756,1030.894165 
	C1112.450439,1046.685913 1092.239624,1053.159302 1068.994873,1054.761353 
	C1071.006836,1053.196289 1072.007080,1052.266846 1073.143677,1051.555664 
	C1127.164917,1017.755920 1146.155884,953.764771 1119.403442,895.668396 
	C1104.724609,863.791504 1085.397583,834.612549 1066.803467,805.009338 
	C1062.286377,797.817749 1057.616455,790.722107 1052.828857,783.272278 
z"/>
<path fill="#8B1A21" opacity="1.000000" stroke="none" 
	d="
M1499.732422,1205.999756 
	C1499.732666,1183.364380 1499.732666,1161.229004 1499.732666,1138.467896 
	C1509.344116,1138.467896 1518.601318,1138.310791 1527.838501,1138.668457 
	C1528.982178,1138.712769 1530.429199,1141.346313 1531.043945,1143.032227 
	C1538.170410,1162.577759 1545.154419,1182.175171 1552.195557,1201.751953 
	C1559.687256,1222.580933 1567.197388,1243.403442 1574.711182,1264.224487 
	C1575.027710,1265.101685 1575.461670,1265.936279 1576.664795,1266.682495 
	C1576.664795,1224.213379 1576.664795,1181.744263 1576.664795,1138.827881 
	C1587.255249,1138.827881 1597.294189,1138.827881 1607.695679,1138.827881 
	C1607.695679,1210.661011 1607.695679,1282.515015 1607.695679,1354.913208 
	C1598.643921,1354.913208 1589.694946,1355.044678 1580.759888,1354.753418 
	C1579.590454,1354.715332 1577.961182,1352.702759 1577.437500,1351.276855 
	C1563.493896,1313.310791 1549.670776,1275.300415 1535.816528,1237.301636 
	C1534.522095,1233.751343 1533.156372,1230.227051 1530.728516,1226.814209 
	C1530.728516,1269.386230 1530.728516,1311.958130 1530.728516,1354.663452 
	C1520.038940,1354.663452 1510.125244,1354.663452 1499.732178,1354.663452 
	C1499.732178,1305.075562 1499.732178,1255.787598 1499.732422,1205.999756 
z"/>
<path fill="#8B1B21" opacity="1.000000" stroke="none" 
	d="
M1135.000000,1138.159912 
	C1147.484863,1138.410645 1159.524292,1138.027710 1171.442749,1139.050903 
	C1192.726685,1140.877930 1207.550415,1153.906128 1212.724976,1174.611938 
	C1217.375366,1193.220581 1217.789673,1211.834717 1211.648682,1230.287598 
	C1208.298340,1240.354492 1201.985107,1248.103638 1193.024780,1253.583618 
	C1190.012085,1255.426025 1189.515137,1257.056763 1190.658203,1260.390991 
	C1200.968384,1290.465332 1211.075562,1320.609497 1221.231812,1350.736450 
	C1221.639771,1351.946411 1221.942993,1353.191650 1222.463135,1355.006714 
	C1212.004761,1355.006714 1202.046875,1355.143188 1192.103149,1354.829224 
	C1190.895752,1354.791138 1189.179565,1352.511353 1188.686035,1350.957153 
	C1180.020508,1323.669434 1171.380615,1296.371582 1163.081543,1268.970947 
	C1161.586914,1264.035889 1159.622803,1261.669434 1154.213989,1262.409790 
	C1150.500732,1262.917969 1146.661865,1262.507202 1142.415283,1262.507202 
	C1142.415283,1293.513550 1142.415283,1323.927490 1142.415283,1355.041748 
	C1132.526123,1355.041748 1123.103760,1355.102661 1113.685425,1354.937134 
	C1112.846680,1354.922363 1111.775269,1353.566162 1111.289062,1352.594238 
	C1110.887451,1351.791260 1111.184326,1350.635254 1111.184448,1349.635620 
	C1111.191772,1280.988892 1111.200562,1212.342163 1111.209106,1143.695435 
	C1111.209229,1142.071655 1111.208984,1140.447876 1111.208984,1138.159912 
	C1119.284302,1138.159912 1126.892212,1138.159912 1135.000000,1138.159912 
M1142.218262,1174.665649 
	C1142.218262,1194.712646 1142.218262,1214.759644 1142.218262,1235.061035 
	C1148.606445,1235.061035 1154.087036,1235.097534 1159.566650,1235.041992 
	C1161.559082,1235.021729 1163.561646,1234.878418 1165.538452,1234.626465 
	C1176.512451,1233.227661 1182.826538,1227.750732 1183.753052,1216.811646 
	C1184.617798,1206.599365 1184.457642,1196.226807 1183.807739,1185.984619 
	C1183.347290,1178.727295 1179.928345,1172.481934 1172.413208,1169.787598 
	C1162.634033,1166.281616 1152.566650,1167.358032 1142.218384,1167.645020 
	C1142.218384,1170.080811 1142.218384,1171.899292 1142.218262,1174.665649 
z"/>
<path fill="#8B1B22" opacity="1.000000" stroke="none" 
	d="
M1636.166016,1297.000000 
	C1636.166016,1244.032959 1636.166016,1191.565918 1636.166016,1139.297852 
	C1636.726318,1138.908203 1636.997681,1138.554321 1637.266235,1138.556396 
	C1656.241943,1138.703003 1675.302856,1137.809082 1694.171631,1139.318115 
	C1718.379272,1141.254272 1735.573853,1160.330688 1736.014282,1185.588135 
	C1736.705444,1225.227417 1736.831299,1264.899414 1736.033203,1304.534180 
	C1735.416504,1335.169312 1716.303101,1353.467651 1685.625122,1354.516357 
	C1670.148438,1355.045532 1654.643799,1354.766235 1639.151855,1354.832764 
	C1638.355591,1354.836182 1637.558716,1354.654907 1636.166016,1354.488281 
	C1636.166016,1335.375610 1636.166016,1316.437866 1636.166016,1297.000000 
M1705.467407,1253.500122 
	C1705.464478,1233.844849 1705.550171,1214.188843 1705.388916,1194.534912 
	C1705.353760,1190.245361 1704.850586,1185.862061 1703.834351,1181.699829 
	C1702.065430,1174.454590 1697.349731,1169.450806 1689.875732,1168.428955 
	C1682.541626,1167.426025 1675.061768,1167.488403 1667.459229,1167.073120 
	C1667.459229,1220.406250 1667.459229,1272.902222 1667.459229,1325.844849 
	C1672.329590,1325.844849 1676.800537,1325.962891 1681.263428,1325.823853 
	C1698.218872,1325.296021 1704.588257,1318.967041 1705.347290,1301.970581 
	C1705.473511,1299.143555 1705.459229,1296.308838 1705.461670,1293.477661 
	C1705.473022,1280.485229 1705.467407,1267.492676 1705.467407,1253.500122 
z"/>
<path fill="#8B1B21" opacity="1.000000" stroke="none" 
	d="
M803.123779,1165.000000 
	C803.123657,1156.026123 803.123657,1147.552124 803.123657,1138.691406 
	C813.578857,1138.691406 823.639404,1138.691406 834.307373,1138.691406 
	C834.307373,1169.477783 834.307373,1200.053833 834.307373,1230.786621 
	C847.344849,1230.786621 859.776489,1230.786621 872.597290,1230.786621 
	C872.597290,1200.082886 872.597290,1169.641357 872.597290,1138.773071 
	C883.019653,1138.773071 893.062073,1138.773071 903.460815,1138.773071 
	C903.460815,1210.665039 903.460815,1282.550415 903.460815,1354.741577 
	C893.393738,1354.741577 883.467590,1354.741577 872.923462,1354.741577 
	C872.923462,1322.891724 872.923462,1291.030884 872.923462,1258.835449 
	C859.737793,1258.835449 847.166626,1258.835449 834.180237,1258.835449 
	C834.180237,1290.878174 834.180237,1322.654663 834.180237,1354.740479 
	C823.841797,1354.740479 813.911255,1354.740479 803.123962,1354.740479 
	C803.123962,1291.661865 803.123962,1228.580933 803.123779,1165.000000 
z"/>
<path fill="#8B1A21" opacity="1.000000" stroke="none" 
	d="
M1239.168945,1229.000000 
	C1239.169067,1215.168091 1239.087036,1201.835693 1239.184082,1188.504517 
	C1239.500244,1145.013306 1282.223999,1127.232666 1313.303955,1141.077759 
	C1333.336548,1150.001709 1342.999756,1166.046021 1343.289673,1187.253418 
	C1343.829468,1226.741821 1343.612305,1266.243530 1343.398438,1305.738037 
	C1343.268555,1329.727295 1328.514526,1348.751953 1306.040894,1354.862549 
	C1282.651367,1361.222412 1258.222168,1351.907715 1246.078125,1331.778442 
	C1241.142578,1323.597778 1239.201782,1314.472168 1239.176270,1304.991089 
	C1239.108398,1279.827637 1239.163086,1254.663696 1239.168945,1229.000000 
M1291.436646,1167.382446 
	C1277.136108,1168.447266 1270.335205,1175.640137 1270.225342,1189.824707 
	C1270.211182,1191.656860 1270.230347,1193.489380 1270.230347,1195.321655 
	C1270.231201,1231.302734 1270.240967,1267.283691 1270.225098,1303.264771 
	C1270.221191,1312.204956 1272.712646,1319.823608 1281.558350,1323.727905 
	C1294.056519,1329.244263 1312.468140,1323.924438 1312.338135,1304.333008 
	C1312.083740,1266.021606 1312.321899,1227.707031 1312.244141,1189.394043 
	C1312.216309,1175.711548 1305.968994,1169.021973 1291.436646,1167.382446 
z"/>
<path fill="#8A1A21" opacity="1.000000" stroke="none" 
	d="
M440.591003,1249.999756 
	C440.587524,1228.840210 440.447205,1208.179565 440.613007,1187.521362 
	C440.794403,1164.913696 453.062988,1147.587891 474.114746,1139.675049 
	C493.196564,1132.502686 517.926758,1137.951050 530.939209,1152.258423 
	C539.570923,1161.748901 544.377686,1172.910400 544.413879,1185.775146 
	C544.527893,1226.260864 544.719299,1266.749634 544.340759,1307.232178 
	C544.138245,1328.893799 533.346252,1344.444092 513.361572,1352.530762 
	C492.782043,1360.858032 473.483521,1357.696533 456.581512,1342.851929 
	C445.495270,1333.115112 440.703033,1320.492188 440.620117,1305.980347 
	C440.514465,1287.487427 440.591034,1268.993286 440.591003,1249.999756 
M471.624115,1277.500000 
	C471.640533,1286.990967 471.467072,1296.487061 471.726349,1305.971313 
	C471.990509,1315.632080 476.424103,1321.588989 484.887146,1324.521484 
	C499.848206,1329.705322 513.319092,1320.486084 513.632812,1304.651733 
	C513.843811,1293.999023 513.687988,1283.338867 513.689941,1272.682129 
	C513.695007,1245.207642 513.696777,1217.733032 513.699219,1190.258545 
	C513.699951,1181.812256 511.686279,1174.352173 503.462524,1170.126709 
	C487.796936,1162.077515 471.756348,1171.522217 471.657288,1189.081543 
	C471.492889,1218.220093 471.619720,1247.360474 471.624115,1277.500000 
z"/>
<path fill="#8B1B21" opacity="1.000000" stroke="none" 
	d="
M980.177734,1300.988525 
	C980.177673,1262.997314 980.174072,1225.503540 980.178833,1188.009888 
	C980.182434,1158.882812 1001.074646,1137.471191 1030.224487,1136.707153 
	C1056.841064,1136.009521 1077.723389,1151.908813 1082.545532,1177.262939 
	C1083.927612,1184.530518 1083.495605,1192.143066 1083.915771,1199.975830 
	C1073.317139,1199.975830 1063.394165,1199.975830 1052.615112,1199.975830 
	C1052.615112,1195.783447 1052.809326,1191.344849 1052.574707,1186.929199 
	C1052.086426,1177.737549 1047.303711,1171.170898 1039.572510,1168.648926 
	C1030.739136,1165.767456 1020.389465,1167.971924 1015.536316,1174.947021 
	C1013.030640,1178.548340 1011.253906,1183.491333 1011.217224,1187.845581 
	C1010.887573,1227.002808 1010.897583,1266.164307 1011.082947,1305.323242 
	C1011.141846,1317.764404 1019.261414,1325.412598 1031.657227,1325.724365 
	C1043.327759,1326.017944 1051.895386,1318.812866 1052.428101,1306.792725 
	C1053.060913,1292.512085 1052.577026,1278.181763 1052.577026,1263.288818 
	C1044.627441,1263.288818 1036.899414,1263.288818 1028.765137,1263.288818 
	C1028.765137,1253.977295 1028.765137,1245.238159 1028.765137,1236.093628 
	C1046.722168,1236.093628 1064.769043,1236.093628 1083.176880,1236.093628 
	C1083.296021,1237.125854 1083.531128,1238.218872 1083.532227,1239.312134 
	C1083.552979,1261.308472 1083.612305,1283.304932 1083.528687,1305.300903 
	C1083.433472,1330.314453 1069.025024,1348.827881 1044.820679,1355.259277 
	C1022.577820,1361.169312 997.921570,1350.968994 986.318787,1330.889893 
	C981.071350,1321.808960 979.609436,1311.834229 980.177734,1300.988525 
z"/>
<path fill="#8B1B22" opacity="1.000000" stroke="none" 
	d="
M1440.307251,1212.000000 
	C1440.314819,1187.674683 1440.320923,1163.849487 1440.344238,1140.024170 
	C1440.344604,1139.719360 1440.564087,1139.414795 1440.827759,1138.729248 
	C1450.594360,1138.729248 1460.512695,1138.729248 1470.898438,1138.729248 
	C1471.007080,1140.008667 1471.233643,1141.433960 1471.233765,1142.859131 
	C1471.238281,1197.676514 1471.287720,1252.494019 1471.177490,1307.311157 
	C1471.131714,1330.062500 1455.930664,1349.331543 1433.810425,1355.216431 
	C1402.747803,1363.480103 1371.099365,1339.364502 1371.055420,1307.238281 
	C1370.980591,1252.421021 1371.037354,1197.603394 1371.038940,1142.786011 
	C1371.039062,1141.630493 1371.039062,1140.474976 1371.039062,1138.811768 
	C1381.270996,1138.811768 1391.279541,1138.811768 1401.956543,1138.811768 
	C1401.956543,1140.645142 1401.956421,1142.408325 1401.956543,1144.171631 
	C1401.959961,1196.489746 1401.955688,1248.807861 1401.988037,1301.125977 
	C1401.989746,1303.947388 1402.036255,1306.813477 1402.511108,1309.581787 
	C1404.249756,1319.716553 1411.227539,1325.732666 1420.987427,1325.758911 
	C1431.168213,1325.786255 1438.149658,1319.821411 1439.856567,1309.445190 
	C1440.259155,1306.997314 1440.271851,1304.466919 1440.274536,1301.974365 
	C1440.306152,1272.149536 1440.302002,1242.324829 1440.307251,1212.000000 
z"/>
<path fill="#8A1B22" opacity="1.000000" stroke="none" 
	d="
M390.435364,1200.647461 
	C389.329987,1199.038696 388.442505,1197.485840 388.079529,1195.818970 
	C386.784210,1189.870483 386.368408,1183.628784 384.315216,1177.971436 
	C381.362640,1169.835938 374.190643,1167.527222 366.126617,1167.505981 
	C357.883331,1167.484253 351.334900,1170.727539 348.097595,1178.478271 
	C343.705719,1188.993408 344.108002,1200.008423 346.655243,1210.870361 
	C348.011993,1216.655884 352.699524,1219.941650 357.899475,1222.150269 
	C366.786469,1225.924805 375.880676,1229.222290 384.697357,1233.148071 
	C390.743439,1235.840088 396.864807,1238.689087 402.253815,1242.465088 
	C414.616577,1251.127563 418.002747,1264.507446 418.432739,1278.468140 
	C418.805176,1290.558594 418.720856,1302.870361 416.873627,1314.779663 
	C412.658417,1341.955322 394.004150,1356.952881 366.471069,1356.826294 
	C339.378632,1356.701660 318.630371,1340.826416 313.620087,1315.650635 
	C312.244690,1308.739624 312.745300,1301.455322 312.372040,1294.085205 
	C323.077759,1294.085205 333.016449,1294.085205 343.575928,1294.085205 
	C343.575928,1297.405396 343.504059,1300.531860 343.587799,1303.654175 
	C344.082214,1322.090210 361.307037,1332.064575 377.834686,1323.473755 
	C383.277954,1320.644531 386.734406,1315.897217 386.995026,1310.008179 
	C387.486633,1298.900024 387.380859,1287.736816 386.879333,1276.625610 
	C386.634125,1271.193726 383.277527,1266.948730 378.195312,1264.639038 
	C370.012939,1260.920288 361.725250,1257.433838 353.494507,1253.821045 
	C349.074341,1251.880859 344.619141,1250.005981 340.285675,1247.885132 
	C326.577515,1241.176270 318.692108,1230.080566 315.835480,1215.197021 
	C313.058105,1200.726318 313.188843,1186.400024 317.436859,1172.190063 
	C323.857513,1150.712158 341.671448,1137.701904 364.073273,1136.583374 
	C389.256409,1135.326172 407.987823,1150.293213 415.377808,1166.952148 
	C420.111450,1177.622925 418.795990,1188.803223 418.905457,1200.651245 
	C409.410919,1200.651245 400.152374,1200.651245 390.435364,1200.647461 
z"/>
<path fill="#8B1A21" opacity="1.000000" stroke="none" 
	d="
M640.956909,1352.974487 
	C640.532471,1353.228516 640.108032,1353.482666 639.016724,1353.539795 
	C632.135498,1353.895752 625.931091,1354.659180 619.704529,1354.953125 
	C609.555725,1355.432373 601.139771,1350.168579 593.244751,1345.063354 
	C588.246643,1341.831299 585.072144,1335.807739 580.976624,1331.126343 
	C580.189880,1330.227173 578.923035,1329.748047 577.877686,1329.075073 
	C577.877686,1329.075073 577.969666,1329.031616 577.972290,1328.653442 
	C576.648987,1321.158203 574.252441,1314.052490 574.176819,1306.922119 
	C573.788086,1270.279053 573.995544,1233.629639 573.995239,1196.982422 
	C573.995117,1179.824829 574.083679,1162.666504 573.931946,1145.510254 
	C573.895996,1141.451172 575.189453,1139.636230 579.390015,1139.956543 
	C585.005737,1140.384766 590.734314,1141.332397 596.241333,1140.653442 
	C602.375122,1139.897095 602.048096,1143.029175 602.037109,1147.152588 
	C601.959106,1176.470093 601.996338,1205.788086 601.997681,1235.105835 
	C601.998779,1259.426270 601.854614,1283.748169 602.120972,1308.065674 
	C602.176880,1313.169556 603.024353,1318.643433 608.956543,1321.021362 
	C608.956543,1321.021362 609.002441,1321.001587 609.003418,1321.388672 
	C609.640320,1322.660400 610.085266,1323.857422 610.941833,1324.381348 
	C619.042542,1329.335327 627.152893,1327.368530 634.951599,1323.753418 
	C639.817017,1321.497925 642.298340,1315.222656 641.216919,1310.063721 
	C641.340332,1308.935669 641.463623,1307.807495 642.019287,1306.064697 
	C642.632751,1303.486206 642.970947,1301.522827 642.972107,1299.559082 
	C643.001526,1248.655640 642.993530,1197.752319 642.999268,1146.848877 
	C643.000061,1140.005981 643.018127,1139.997070 650.025513,1139.997559 
	C657.511169,1139.998169 664.996887,1140.017822 672.482544,1140.029297 
	C672.542175,1155.713257 672.601746,1171.397339 672.220093,1187.715576 
	C671.532593,1188.945068 671.074890,1189.539062 671.071594,1190.135620 
	C671.018372,1199.793335 670.982422,1209.451904 671.075989,1219.108887 
	C671.085388,1220.081177 671.956665,1221.045044 672.427917,1222.012817 
	C672.505798,1234.369019 672.583618,1246.725220 672.220276,1259.715698 
	C671.522644,1262.106689 671.051453,1263.862305 671.043762,1265.620117 
	C670.982727,1279.577515 671.323425,1293.544800 670.904114,1307.489868 
	C670.603760,1317.479980 668.194031,1327.019043 661.630432,1335.093750 
	C659.468445,1337.753540 657.811035,1340.823486 655.922852,1343.705933 
	C655.547058,1344.122070 655.171326,1344.538086 654.134521,1345.004272 
	C649.301331,1347.694336 645.129150,1350.334351 640.956909,1352.974487 
z"/>
<path fill="#8B1B22" opacity="1.000000" stroke="none" 
	d="
M754.907898,1167.555176 
	C754.093018,1169.889404 753.510864,1172.114990 753.509033,1174.341064 
	C753.461731,1232.489014 753.474548,1290.637085 753.477051,1348.785034 
	C753.477112,1350.742920 753.477051,1352.700806 753.477051,1354.849731 
	C742.919922,1354.849731 732.965698,1354.849731 722.386719,1354.849731 
	C722.386719,1292.481079 722.386719,1230.271851 722.386719,1167.501709 
	C710.212769,1167.501709 698.643494,1167.501709 686.743713,1167.501709 
	C686.743713,1157.700195 686.743713,1148.455933 686.743713,1138.764893 
	C720.728577,1138.764893 754.749023,1138.764893 789.107910,1138.764893 
	C789.107910,1148.096680 789.107910,1157.351440 789.107910,1167.446899 
	C777.907471,1167.446899 766.659241,1167.446899 754.907898,1167.555176 
z"/>
<path fill="#8A1B21" opacity="1.000000" stroke="none" 
	d="
M1199.934082,781.053223 
	C1202.731812,781.052246 1205.040039,781.052246 1207.840820,781.052246 
	C1207.976318,782.951782 1208.188599,784.541992 1208.188965,786.132141 
	C1208.198730,830.622986 1208.365234,875.114868 1208.126953,919.604431 
	C1207.904541,961.138123 1190.403564,994.737427 1159.893677,1022.116150 
	C1159.533569,1022.439209 1159.060547,1022.636292 1158.108643,1023.215820 
	C1158.524780,1021.886536 1158.679688,1020.981689 1159.072876,1020.196045 
	C1170.913452,996.529297 1176.641235,971.316223 1176.872192,945.006836 
	C1177.251221,901.851624 1177.025269,858.691040 1177.045288,815.532715 
	C1177.045776,814.557922 1176.936646,813.583130 1176.837036,811.907837 
	C1173.273804,811.907837 1169.840820,811.909790 1166.407837,811.907471 
	C1157.576294,811.901489 1148.744263,811.946228 1139.913330,811.872437 
	C1129.949951,811.789246 1122.384155,807.487183 1117.211792,798.895264 
	C1113.793945,793.217896 1110.172607,787.662964 1106.013672,781.054138 
	C1137.755615,781.054138 1168.600220,781.054138 1199.934082,781.053223 
z"/>
<path fill="#882529" opacity="1.000000" stroke="none" 
	d="
M754.059082,1411.018311 
	C755.940308,1409.549194 757.755920,1408.481567 760.533997,1406.848145 
	C762.828796,1419.180664 764.842407,1430.002319 766.856018,1440.824097 
	C767.249023,1440.797119 767.642029,1440.770264 768.035034,1440.743286 
	C768.966492,1432.059570 769.924622,1423.378784 770.821228,1414.691406 
	C771.579895,1407.341919 771.817871,1407.159424 780.034607,1409.033081 
	C778.957336,1416.521729 777.891296,1424.063110 776.783508,1431.598389 
	C775.475159,1440.497437 774.147583,1449.393677 772.796387,1458.286255 
	C771.718018,1465.383057 771.696716,1465.379761 764.019653,1464.421265 
	C762.112793,1453.661499 760.187561,1442.797974 758.262390,1431.934570 
	C757.858887,1431.967407 757.455444,1432.000244 757.052002,1432.032959 
	C755.583923,1440.875977 754.145203,1449.723877 752.638000,1458.560181 
	C751.519897,1465.115479 751.480225,1465.108765 743.739746,1464.529175 
	C740.994690,1446.160522 738.227112,1427.641479 735.387878,1408.642700 
	C738.455444,1408.642700 741.003723,1408.642700 743.992188,1408.642700 
	C745.217407,1419.000122 746.441406,1429.346802 747.665344,1439.693359 
	C748.068848,1439.722534 748.472290,1439.751587 748.875732,1439.780762 
	C750.581665,1430.327148 752.287598,1420.873657 754.059082,1411.018311 
z"/>
<path fill="#872226" opacity="1.000000" stroke="none" 
	d="
M1030.853027,1435.630371 
	C1030.687622,1445.504639 1030.687622,1454.961670 1030.687622,1464.661133 
	C1027.818359,1464.661133 1025.551636,1464.661133 1022.955933,1464.661133 
	C1022.955933,1446.000366 1022.955933,1427.437988 1022.955933,1408.804199 
	C1027.789673,1407.270020 1030.711182,1408.084229 1032.320801,1413.486084 
	C1034.811279,1421.843750 1038.147461,1429.949219 1041.125000,1438.161621 
	C1041.583618,1438.104614 1042.042358,1438.047485 1042.500977,1437.990356 
	C1042.500977,1428.240723 1042.500977,1418.491089 1042.500977,1408.505127 
	C1045.411499,1408.505127 1047.525513,1408.505127 1050.009277,1408.505127 
	C1050.009277,1427.129517 1050.009277,1445.695068 1050.009277,1464.401611 
	C1045.246094,1466.032104 1042.536743,1464.732178 1041.028687,1459.527954 
	C1038.996216,1452.513184 1036.203857,1445.713013 1033.590820,1438.876953 
	C1033.074219,1437.525391 1031.893066,1436.427856 1030.853027,1435.630371 
z"/>
<path fill="#882529" opacity="1.000000" stroke="none" 
	d="
M866.893433,1464.169800 
	C866.706055,1445.502808 866.706055,1427.234009 866.706055,1408.638672 
	C872.474426,1408.638672 878.070374,1408.257568 883.587769,1408.752197 
	C888.529419,1409.195190 891.772400,1412.602173 892.861511,1417.343628 
	C894.574768,1424.801880 895.196899,1432.160645 888.693848,1438.189087 
	C887.796143,1439.021362 887.824341,1441.548096 888.279785,1443.026489 
	C890.472534,1450.142822 892.958679,1457.168701 895.360291,1464.284546 
	C887.232361,1465.738403 887.214966,1465.743896 884.928833,1458.522461 
	C883.424255,1453.770142 881.904053,1449.020508 880.534729,1444.228516 
	C879.696106,1441.293579 878.227234,1439.980469 874.721680,1441.554565 
	C874.721680,1448.997314 874.721680,1456.588013 874.721680,1464.567871 
	C871.872437,1464.567871 869.476624,1464.567871 866.893433,1464.169800 
M877.330261,1415.877075 
	C876.442627,1416.581299 874.819397,1417.252686 874.786072,1417.995239 
	C874.559509,1423.055664 874.667419,1428.131104 874.667419,1433.084961 
	C882.693970,1434.261719 884.919128,1432.927612 885.661011,1427.014526 
	C886.617859,1419.388184 884.779114,1416.631958 877.330261,1415.877075 
z"/>
<path fill="#872226" opacity="1.000000" stroke="none" 
	d="
M1089.667236,1420.538818 
	C1089.580811,1430.965088 1089.546997,1440.942627 1089.552734,1450.920044 
	C1089.554810,1454.522217 1090.830322,1457.172729 1094.957031,1457.185181 
	C1099.031128,1457.197632 1100.442261,1454.682861 1100.461304,1451.016113 
	C1100.477539,1447.885010 1100.464600,1444.753540 1100.464600,1441.384277 
	C1098.300903,1441.097900 1096.550781,1440.866211 1094.409546,1440.582764 
	C1094.409546,1438.512817 1094.409546,1436.463867 1094.409546,1434.078735 
	C1098.795776,1434.078735 1103.204834,1434.078735 1108.181396,1434.078735 
	C1108.181396,1441.255249 1108.630249,1448.535034 1108.038818,1455.729370 
	C1107.569580,1461.437134 1101.227905,1465.530273 1094.719360,1465.389038 
	C1088.104980,1465.245361 1082.160400,1460.996460 1081.947144,1455.090332 
	C1081.509521,1442.967896 1081.460083,1430.809204 1081.875977,1418.686890 
	C1082.107666,1411.929077 1088.209839,1407.682861 1095.681519,1407.950195 
	C1102.782349,1408.204224 1107.948364,1412.893799 1108.358276,1419.511719 
	C1108.448853,1420.973633 1108.371582,1422.445801 1108.371582,1424.235352 
	C1105.788940,1424.235352 1103.547363,1424.235352 1101.305786,1424.235352 
	C1101.594238,1423.962891 1101.882690,1423.690430 1102.171021,1423.417969 
	C1100.021729,1420.962646 1098.179565,1418.026245 1095.538940,1416.340698 
	C1094.731201,1415.825195 1091.731323,1418.744019 1089.667236,1420.538818 
z"/>
<path fill="#882529" opacity="1.000000" stroke="none" 
	d="
M940.007324,1448.235718 
	C939.021484,1445.604980 938.143982,1443.344971 937.156250,1440.800781 
	C930.041199,1447.868896 933.895691,1456.640381 932.276123,1464.593750 
	C929.934509,1464.593750 927.678101,1464.593750 925.011475,1464.593750 
	C925.011475,1446.111084 925.011475,1427.572632 925.011475,1408.629883 
	C927.333740,1408.629883 929.700073,1408.629883 932.719299,1408.629883 
	C932.719299,1416.124878 932.719299,1423.461426 932.719299,1430.797852 
	C933.168823,1430.904907 933.618347,1431.011963 934.067932,1431.118896 
	C936.727112,1425.331909 939.733032,1419.673340 941.939880,1413.718750 
	C943.831421,1408.614990 946.895386,1407.178345 952.446106,1408.862305 
	C949.759521,1414.397217 947.393555,1420.017822 944.370117,1425.259277 
	C942.045654,1429.288696 942.121399,1432.767334 943.916626,1436.953369 
	C947.391357,1445.055176 950.342896,1453.381714 953.483276,1461.625854 
	C953.815491,1462.498291 953.960205,1463.442383 954.199402,1464.382568 
	C946.343262,1465.517822 946.345032,1465.517212 943.912842,1458.900269 
	C942.651123,1455.467529 941.381714,1452.037598 940.007324,1448.235718 
z"/>
<path fill="#882529" opacity="1.000000" stroke="none" 
	d="
M640.816406,1419.755859 
	C642.411865,1411.128540 647.731628,1407.218384 656.204102,1408.041748 
	C663.250549,1408.726562 667.597778,1413.661255 667.652100,1421.294922 
	C667.725525,1431.615601 667.719055,1441.937500 667.646301,1452.258179 
	C667.591492,1460.028931 662.181763,1465.325439 654.387634,1465.429199 
	C646.639160,1465.532349 640.906555,1460.324585 640.795288,1452.639771 
	C640.638733,1441.821899 640.777161,1430.999878 640.816406,1419.755859 
M648.714233,1450.223389 
	C648.537048,1454.211548 649.699402,1457.329224 654.338379,1457.223877 
	C659.003418,1457.118164 659.773987,1453.796387 659.748535,1449.923950 
	C659.689636,1440.965454 659.696838,1432.006104 659.753357,1423.047607 
	C659.778503,1419.054565 658.614014,1415.947754 654.031860,1416.046509 
	C649.766602,1416.138306 648.650085,1419.094116 648.679688,1422.897705 
	C648.748291,1431.690674 648.694092,1440.484619 648.714233,1450.223389 
z"/>
<path fill="#872226" opacity="1.000000" stroke="none" 
	d="
M810.247498,1413.419556 
	C814.991882,1407.600342 820.886475,1406.653564 827.141052,1408.979126 
	C833.471069,1411.332764 835.243347,1416.741943 835.160706,1423.105347 
	C835.039551,1432.429565 835.173889,1441.756714 835.123169,1451.082153 
	C835.075195,1459.899780 829.711670,1465.451660 821.388367,1465.427856 
	C813.428284,1465.405029 808.042297,1459.842407 807.958130,1451.307739 
	C807.861145,1441.483276 807.785583,1431.653442 808.031372,1421.834229 
	C808.099243,1419.121826 809.344910,1416.439087 810.247498,1413.419556 
M815.991333,1429.547852 
	C815.990173,1436.855591 815.946533,1444.163818 816.006470,1451.471069 
	C816.035278,1454.971069 817.736511,1457.192505 821.415283,1457.251953 
	C825.084595,1457.311401 826.955688,1455.204956 826.983704,1451.662964 
	C827.063904,1441.532837 827.089600,1431.401245 826.992065,1421.271484 
	C826.959839,1417.929443 824.958984,1416.045288 821.603638,1416.016602 
	C818.293701,1415.988281 816.258545,1417.727905 816.030273,1421.096436 
	C815.862122,1423.576416 815.993408,1426.076660 815.991333,1429.547852 
z"/>
<path fill="#882529" opacity="1.000000" stroke="none" 
	d="
M1178.807251,1458.105469 
	C1176.578247,1451.090698 1178.071167,1445.218872 1182.953125,1440.336060 
	C1184.960571,1438.328369 1185.038452,1436.788330 1183.645874,1434.307861 
	C1182.217773,1431.764160 1181.241211,1428.786499 1180.833862,1425.890991 
	C1180.158813,1421.090332 1181.664795,1416.935791 1186.351440,1414.628296 
	C1190.529663,1412.571167 1197.119141,1413.595215 1199.825806,1416.703369 
	C1203.318970,1420.714600 1203.511719,1425.224854 1200.978271,1429.672852 
	C1199.273926,1432.665161 1196.966675,1435.313843 1194.694824,1438.438599 
	C1195.652588,1440.044922 1196.727661,1441.884521 1197.838745,1443.701782 
	C1198.960327,1445.536133 1200.117554,1447.348511 1201.557495,1449.646851 
	C1203.159546,1447.753052 1204.502686,1446.165283 1206.150146,1444.217773 
	C1207.625366,1445.161987 1209.079468,1446.092529 1210.808960,1447.199463 
	C1208.974854,1450.199341 1205.982544,1452.942383 1205.984863,1455.682861 
	C1205.987183,1458.533936 1208.881958,1461.382446 1210.777954,1464.697144 
	C1206.478394,1465.327759 1202.719971,1466.281006 1200.757324,1461.519531 
	C1188.561523,1467.377441 1184.011230,1466.713013 1178.807251,1458.105469 
M1191.556885,1446.921021 
	C1190.801147,1445.925903 1190.045410,1444.930786 1189.260254,1443.896729 
	C1184.571533,1448.532227 1183.708496,1453.995117 1186.898804,1457.276123 
	C1189.583740,1460.037231 1192.998535,1459.473389 1196.833374,1455.474365 
	C1195.237427,1452.864136 1193.604370,1450.193115 1191.556885,1446.921021 
M1187.989136,1426.237305 
	C1188.826904,1428.257568 1189.664795,1430.277710 1190.657959,1432.672485 
	C1194.430664,1429.695312 1196.499634,1426.648926 1195.342285,1422.555176 
	C1195.028687,1421.445801 1192.025146,1419.927856 1191.800659,1420.151001 
	C1190.262939,1421.679565 1189.136230,1423.621826 1187.989136,1426.237305 
z"/>
<path fill="#882529" opacity="1.000000" stroke="none" 
	d="
M1338.364258,1440.139893 
	C1340.619995,1430.151733 1342.679810,1420.548096 1345.076416,1411.029297 
	C1345.367676,1409.871704 1347.436523,1408.511108 1348.745483,1408.441406 
	C1350.090454,1408.369751 1352.512573,1409.529907 1352.754028,1410.554199 
	C1356.949707,1428.347046 1360.881714,1446.202026 1364.976685,1464.514526 
	C1362.138672,1464.514526 1359.741699,1464.514526 1357.180542,1464.514526 
	C1354.463379,1460.404785 1358.067871,1451.491455 1347.554932,1452.702637 
	C1338.889893,1453.700806 1344.502808,1461.468384 1339.995361,1464.629028 
	C1338.358154,1464.629028 1335.942627,1464.629028 1332.949951,1464.629028 
	C1334.778442,1456.354004 1336.524536,1448.452026 1338.364258,1440.139893 
M1346.801514,1445.133423 
	C1348.735718,1445.133423 1350.669800,1445.133423 1353.005371,1445.133423 
	C1351.701782,1438.576294 1350.537476,1432.719971 1349.373169,1426.863770 
	C1348.888306,1426.868164 1348.403442,1426.872559 1347.918579,1426.877075 
	C1347.262817,1432.907104 1346.607178,1438.937134 1346.801514,1445.133423 
z"/>
<path fill="#882529" opacity="1.000000" stroke="none" 
	d="
M1279.718018,1425.132080 
	C1279.723267,1423.654785 1279.711792,1422.656372 1279.723267,1421.658081 
	C1279.829712,1412.428955 1284.611572,1407.685425 1293.551147,1407.935913 
	C1301.259277,1408.151978 1306.121216,1413.839722 1305.875488,1422.377686 
	C1305.861450,1422.867310 1305.696411,1423.352539 1305.528442,1424.216553 
	C1303.179565,1424.216553 1300.779541,1424.216553 1298.300659,1424.216553 
	C1298.173950,1424.023560 1297.855713,1423.760742 1297.838623,1423.479492 
	C1297.616943,1419.831665 1297.260864,1415.993774 1292.414185,1416.134888 
	C1287.317383,1416.283081 1287.764771,1420.537964 1287.721924,1423.943237 
	C1287.616943,1432.261108 1287.669800,1440.582397 1287.766724,1448.901001 
	C1287.807983,1452.446167 1286.931519,1456.886963 1292.421143,1457.153076 
	C1297.766724,1457.412231 1297.533447,1453.046021 1297.976196,1449.143555 
	C1300.439331,1449.143555 1302.844360,1449.143555 1305.485840,1449.143555 
	C1306.768188,1454.777832 1305.065186,1459.335693 1300.694458,1462.826294 
	C1296.171997,1466.438110 1291.059570,1466.290161 1286.095093,1464.013184 
	C1281.107544,1461.725586 1279.635132,1457.334106 1279.713623,1452.067261 
	C1279.844971,1443.250488 1279.725708,1434.429810 1279.718018,1425.132080 
z"/>
<path fill="#882529" opacity="1.000000" stroke="none" 
	d="
M600.134155,1456.340820 
	C601.249023,1453.986694 602.015869,1451.862793 602.967834,1449.226074 
	C604.825256,1449.226074 607.213623,1449.226074 609.925293,1449.226074 
	C611.114624,1454.579102 609.720276,1459.208496 605.297729,1462.750854 
	C600.777283,1466.371582 595.669861,1466.319580 590.698303,1464.052002 
	C585.749329,1461.794556 584.102173,1457.411865 584.144287,1452.150024 
	C584.224182,1442.165161 584.125916,1432.178711 584.176575,1422.193359 
	C584.226929,1412.276245 589.162231,1407.429321 598.528931,1407.969482 
	C606.643616,1408.437622 610.900269,1414.311768 609.972839,1424.192505 
	C607.637573,1424.192505 605.249329,1424.192505 602.808655,1424.192505 
	C602.650574,1423.975586 602.320374,1423.731201 602.300842,1423.463867 
	C602.036743,1419.858276 601.799683,1415.977661 596.890076,1416.137817 
	C591.784058,1416.304321 592.247009,1420.502075 592.210999,1423.923584 
	C592.116272,1432.909546 592.086243,1441.898682 592.218018,1450.883911 
	C592.300171,1456.484375 594.114624,1457.724976 600.134155,1456.340820 
z"/>
<path fill="#882529" opacity="1.000000" stroke="none" 
	d="
M1446.872925,1452.982666 
	C1446.872925,1438.019287 1446.872925,1423.552246 1446.872925,1408.658447 
	C1454.859985,1408.658447 1462.554199,1408.658447 1470.582275,1408.658447 
	C1470.582275,1410.824097 1470.582275,1412.905518 1470.582275,1415.894653 
	C1466.749634,1415.894653 1462.840454,1416.030518 1458.946045,1415.849609 
	C1456.059326,1415.715698 1454.620483,1416.480103 1454.787598,1419.697266 
	C1455.001099,1423.803711 1454.839478,1427.929565 1454.839478,1432.503418 
	C1459.656982,1432.503418 1463.921265,1432.503418 1468.527588,1432.503418 
	C1468.527588,1435.186646 1468.527588,1437.415771 1468.527588,1440.261597 
	C1465.232788,1440.261597 1461.956177,1440.387817 1458.694214,1440.222168 
	C1456.004761,1440.085693 1454.679199,1440.867065 1454.798340,1443.816162 
	C1454.965088,1447.944824 1454.840332,1452.085205 1454.840332,1456.801025 
	C1460.275024,1456.801025 1465.342773,1456.801025 1470.655518,1456.801025 
	C1470.655518,1459.648804 1470.655518,1461.913696 1470.655518,1464.513672 
	C1462.818237,1464.513672 1455.104980,1464.513672 1446.872925,1464.513672 
	C1446.872925,1460.716797 1446.872925,1457.097778 1446.872925,1452.982666 
z"/>
<path fill="#882529" opacity="1.000000" stroke="none" 
	d="
M608.848999,1320.686523 
	C603.024353,1318.643433 602.176880,1313.169556 602.120972,1308.065674 
	C601.854614,1283.748169 601.998779,1259.426270 601.997681,1235.105835 
	C601.996338,1205.788086 601.959106,1176.470093 602.037109,1147.152588 
	C602.048096,1143.029175 602.375122,1139.897095 596.241333,1140.653442 
	C590.734314,1141.332397 585.005737,1140.384766 579.390015,1139.956543 
	C575.189453,1139.636230 573.895996,1141.451172 573.931946,1145.510254 
	C574.083679,1162.666504 573.995117,1179.824829 573.995239,1196.982422 
	C573.995544,1233.629639 573.788086,1270.279053 574.176819,1306.922119 
	C574.252441,1314.052490 576.648987,1321.158203 577.944580,1328.696045 
	C575.975464,1322.167969 572.414856,1315.233154 572.354736,1308.267944 
	C571.873291,1252.450562 572.052124,1196.627686 572.042969,1140.806396 
	C572.042847,1140.170776 572.229187,1139.535156 572.373413,1138.611816 
	C582.575928,1138.611816 592.630432,1138.611816 603.210815,1138.611816 
	C603.210815,1140.458862 603.210999,1142.088013 603.210815,1143.717163 
	C603.203125,1196.372925 603.199829,1249.028687 603.182373,1301.684448 
	C603.180115,1308.469971 603.909729,1315.015991 608.848999,1320.686523 
z"/>
<path fill="#882529" opacity="1.000000" stroke="none" 
	d="
M1405.955811,1440.828369 
	C1404.168945,1440.948242 1402.870728,1441.071045 1401.191406,1441.230103 
	C1401.191406,1449.097412 1401.191406,1456.723389 1401.191406,1464.593750 
	C1398.516479,1464.593750 1396.245483,1464.593750 1393.536499,1464.593750 
	C1393.536499,1446.003784 1393.536499,1427.474487 1393.536499,1408.593994 
	C1401.106689,1408.593994 1408.705933,1408.593994 1416.721558,1408.593994 
	C1416.721558,1410.768066 1416.721558,1413.126099 1416.721558,1416.015137 
	C1411.617310,1416.015137 1406.679077,1416.015137 1401.477051,1416.015137 
	C1401.477051,1421.811401 1401.477051,1427.084473 1401.477051,1432.960449 
	C1405.985474,1432.960449 1410.381470,1432.960449 1415.025146,1432.960449 
	C1415.025146,1435.819458 1415.025146,1438.078979 1415.025146,1440.831299 
	C1412.009277,1440.831299 1409.226929,1440.831299 1405.955811,1440.828369 
z"/>
<path fill="#872226" opacity="1.000000" stroke="none" 
	d="
M990.826782,1419.036865 
	C990.826660,1434.473755 990.826660,1449.416382 990.826660,1464.593384 
	C987.996765,1464.593384 985.723450,1464.593384 983.049438,1464.593384 
	C983.049438,1446.067017 983.049438,1427.535645 983.049438,1408.618530 
	C985.412659,1408.618530 987.784851,1408.618530 990.826904,1408.618530 
	C990.826904,1411.995361 990.826904,1415.268921 990.826782,1419.036865 
z"/>
<path fill="#882529" opacity="1.000000" stroke="none" 
	d="
M672.534424,1139.656006 
	C664.996887,1140.017822 657.511169,1139.998169 650.025513,1139.997559 
	C643.018127,1139.997070 643.000061,1140.005981 642.999268,1146.848877 
	C642.993530,1197.752319 643.001526,1248.655640 642.972107,1299.559082 
	C642.970947,1301.522827 642.632751,1303.486206 642.152588,1305.748535 
	C641.769348,1305.058105 641.611633,1304.069092 641.611389,1303.080078 
	C641.599121,1249.478271 641.600159,1195.876465 641.599792,1142.274658 
	C641.599731,1141.279297 641.599731,1140.284058 641.599731,1138.376953 
	C644.970703,1138.376953 648.205688,1138.285278 651.433777,1138.395630 
	C658.486450,1138.636719 665.535645,1138.980835 672.534424,1139.656006 
z"/>
<path fill="#882529" opacity="1.000000" stroke="none" 
	d="
M656.237061,1343.632812 
	C657.811035,1340.823486 659.468445,1337.753540 661.630432,1335.093750 
	C668.194031,1327.019043 670.603760,1317.479980 670.904114,1307.489868 
	C671.323425,1293.544800 670.982727,1279.577515 671.043762,1265.620117 
	C671.051453,1263.862305 671.522644,1262.106689 672.103455,1260.169189 
	C672.439880,1277.417603 672.964355,1294.866333 672.291077,1312.268921 
	C671.808960,1324.732178 665.479370,1334.974854 656.237061,1343.632812 
z"/>
<path fill="#882529" opacity="1.000000" stroke="none" 
	d="
M577.922852,1329.426514 
	C578.923035,1329.748047 580.189880,1330.227173 580.976624,1331.126343 
	C585.072144,1335.807739 588.246643,1341.831299 593.244751,1345.063354 
	C601.139771,1350.168579 609.555725,1355.432373 619.704529,1354.953125 
	C625.931091,1354.659180 632.135498,1353.895752 638.637817,1353.565430 
	C621.819275,1361.163086 599.010681,1355.477905 585.490051,1340.245239 
	C582.652954,1337.048828 580.458557,1333.281982 577.922852,1329.426514 
z"/>
<path fill="#882529" opacity="1.000000" stroke="none" 
	d="
M641.047363,1310.375488 
	C642.298340,1315.222656 639.817017,1321.497925 634.951599,1323.753418 
	C627.152893,1327.368530 619.042542,1329.335327 610.941833,1324.381348 
	C610.085266,1323.857422 609.640320,1322.660400 608.990845,1321.410278 
	C613.619629,1322.587280 618.205566,1325.196655 622.916382,1325.445923 
	C632.189148,1325.936768 638.113037,1320.479736 641.047363,1310.375488 
z"/>
<path fill="#882529" opacity="1.000000" stroke="none" 
	d="
M705.512451,1464.725586 
	C703.118958,1464.824585 701.140869,1464.824585 698.858154,1464.824585 
	C698.858154,1462.260498 698.858154,1459.990112 698.858154,1457.307373 
	C701.336487,1457.307373 703.868042,1457.307373 707.095337,1457.307373 
	C706.679199,1459.916138 706.303528,1462.271362 705.512451,1464.725586 
z"/>
<path fill="#882529" opacity="1.000000" stroke="none" 
	d="
M672.557739,1221.560059 
	C671.956665,1221.045044 671.085388,1220.081177 671.075989,1219.108887 
	C670.982422,1209.451904 671.018372,1199.793335 671.071594,1190.135620 
	C671.074890,1189.539062 671.532593,1188.945068 672.103394,1188.169189 
	C672.514465,1199.028076 672.601013,1210.067627 672.557739,1221.560059 
z"/>
<path fill="#882529" opacity="1.000000" stroke="none" 
	d="
M641.274170,1352.964478 
	C645.129150,1350.334351 649.301331,1347.694336 653.857178,1345.075195 
	C650.024353,1347.715576 645.807922,1350.335083 641.274170,1352.964478 
z"/>
<path fill="#8A1B21" opacity="1.000000" stroke="none" 
	d="
M1157.507446,1024.508545 
	C1157.522705,1024.489624 1157.492188,1024.527588 1157.507446,1024.508545 
z"/>
<path fill="#F3E2D0" opacity="1.000000" stroke="none" 
	d="
M1017.464722,991.734741 
	C983.842468,1001.314636 950.461060,982.169067 944.720154,949.202209 
	C942.543884,936.705200 943.257202,923.643921 943.256897,910.839844 
	C943.255493,858.210571 943.486328,805.581238 943.631104,752.951965 
	C943.635071,751.512024 943.631592,750.072083 944.649109,748.223450 
	C948.227051,753.681152 951.859253,759.104187 955.374146,764.602234 
	C981.280334,805.125122 1007.216125,845.629272 1033.010864,886.223083 
	C1038.532471,894.912720 1043.879272,903.752625 1048.679565,912.854065 
	C1063.448608,940.856628 1051.887085,979.693970 1017.464722,991.734741 
z"/>
<path fill="#F3E0CE" opacity="1.000000" stroke="none" 
	d="
M893.881226,573.879089 
	C892.562500,580.014771 890.953125,586.104492 889.973267,592.293823 
	C884.427612,627.325317 892.895142,659.726746 909.005859,690.556396 
	C911.240479,694.832581 912.397217,698.948853 912.383545,703.788330 
	C912.176270,777.270203 912.125061,850.752441 912.000916,924.234619 
	C911.972595,940.979797 912.575928,957.658325 919.859802,973.156433 
	C933.635681,1002.467712 956.434265,1019.862183 989.161804,1024.669800 
	C988.062378,1025.079224 987.308228,1025.552734 986.516357,1025.627686 
	C941.334351,1029.900391 899.586609,1006.327698 880.535156,965.591064 
	C872.897705,949.260254 870.812439,931.775940 870.857971,913.954834 
	C871.090271,822.977295 871.300659,731.999695 871.601135,641.022339 
	C871.682190,616.478882 878.749023,594.119629 893.629883,574.088257 
	C893.918945,573.920532 893.881165,573.879089 893.881226,573.879089 
z"/>
<path fill="#F3E0CE" opacity="1.000000" stroke="none" 
	d="
M893.934448,573.943970 
	C893.949951,573.967407 894.302979,573.659119 894.302979,573.659119 
	C894.302979,573.659119 894.135132,573.971191 894.008179,573.925171 
	C893.881165,573.879089 893.918945,573.920532 893.934448,573.943970 
z"/>
<path fill="#F3E0CE" opacity="1.000000" stroke="none" 
	d="
M1142.218262,1174.191650 
	C1142.218384,1171.899292 1142.218384,1170.080811 1142.218384,1167.645020 
	C1152.566650,1167.358032 1162.634033,1166.281616 1172.413208,1169.787598 
	C1179.928345,1172.481934 1183.347290,1178.727295 1183.807739,1185.984619 
	C1184.457642,1196.226807 1184.617798,1206.599365 1183.753052,1216.811646 
	C1182.826538,1227.750732 1176.512451,1233.227661 1165.538452,1234.626465 
	C1163.561646,1234.878418 1161.559082,1235.021729 1159.566650,1235.041992 
	C1154.087036,1235.097534 1148.606445,1235.061035 1142.218262,1235.061035 
	C1142.218262,1214.759644 1142.218262,1194.712646 1142.218262,1174.191650 
z"/>
<path fill="#F3E1CF" opacity="1.000000" stroke="none" 
	d="
M1705.467529,1254.000244 
	C1705.467407,1267.492676 1705.473022,1280.485229 1705.461670,1293.477661 
	C1705.459229,1296.308838 1705.473511,1299.143555 1705.347290,1301.970581 
	C1704.588257,1318.967041 1698.218872,1325.296021 1681.263428,1325.823853 
	C1676.800537,1325.962891 1672.329590,1325.844849 1667.459229,1325.844849 
	C1667.459229,1272.902222 1667.459229,1220.406250 1667.459229,1167.073120 
	C1675.061768,1167.488403 1682.541626,1167.426025 1689.875732,1168.428955 
	C1697.349731,1169.450806 1702.065430,1174.454590 1703.834351,1181.699829 
	C1704.850586,1185.862061 1705.353760,1190.245361 1705.388916,1194.534912 
	C1705.550171,1214.188843 1705.464478,1233.844849 1705.467529,1254.000244 
z"/>
<path fill="#F3E1CF" opacity="1.000000" stroke="none" 
	d="
M1291.847046,1167.412231 
	C1305.968994,1169.021973 1312.216309,1175.711548 1312.244141,1189.394043 
	C1312.321899,1227.707031 1312.083740,1266.021606 1312.338135,1304.333008 
	C1312.468140,1323.924438 1294.056519,1329.244263 1281.558350,1323.727905 
	C1272.712646,1319.823608 1270.221191,1312.204956 1270.225098,1303.264771 
	C1270.240967,1267.283691 1270.231201,1231.302734 1270.230347,1195.321655 
	C1270.230347,1193.489380 1270.211182,1191.656860 1270.225342,1189.824707 
	C1270.335205,1175.640137 1277.136108,1168.447266 1291.847046,1167.412231 
z"/>
<path fill="#F3E1CF" opacity="1.000000" stroke="none" 
	d="
M471.624023,1277.000000 
	C471.619720,1247.360474 471.492889,1218.220093 471.657288,1189.081543 
	C471.756348,1171.522217 487.796936,1162.077515 503.462524,1170.126709 
	C511.686279,1174.352173 513.699951,1181.812256 513.699219,1190.258545 
	C513.696777,1217.733032 513.695007,1245.207642 513.689941,1272.682129 
	C513.687988,1283.338867 513.843811,1293.999023 513.632812,1304.651733 
	C513.319092,1320.486084 499.848206,1329.705322 484.887146,1324.521484 
	C476.424103,1321.588989 471.990509,1315.632080 471.726349,1305.971313 
	C471.467072,1296.487061 471.640533,1286.990967 471.624023,1277.000000 
z"/>
<path fill="#F3D9C9" opacity="1.000000" stroke="none" 
	d="
M877.783081,1415.880981 
	C884.779114,1416.631958 886.617859,1419.388184 885.661011,1427.014526 
	C884.919128,1432.927612 882.693970,1434.261719 874.667419,1433.084961 
	C874.667419,1428.131104 874.559509,1423.055664 874.786072,1417.995239 
	C874.819397,1417.252686 876.442627,1416.581299 877.783081,1415.880981 
z"/>
<path fill="#F3D9C9" opacity="1.000000" stroke="none" 
	d="
M648.701904,1449.750732 
	C648.694092,1440.484619 648.748291,1431.690674 648.679688,1422.897705 
	C648.650085,1419.094116 649.766602,1416.138306 654.031860,1416.046509 
	C658.614014,1415.947754 659.778503,1419.054565 659.753357,1423.047607 
	C659.696838,1432.006104 659.689636,1440.965454 659.748535,1449.923950 
	C659.773987,1453.796387 659.003418,1457.118164 654.338379,1457.223877 
	C649.699402,1457.329224 648.537048,1454.211548 648.701904,1449.750732 
z"/>
<path fill="#F3D9C9" opacity="1.000000" stroke="none" 
	d="
M815.991333,1429.057861 
	C815.993408,1426.076660 815.862122,1423.576416 816.030273,1421.096436 
	C816.258545,1417.727905 818.293701,1415.988281 821.603638,1416.016602 
	C824.958984,1416.045288 826.959839,1417.929443 826.992065,1421.271484 
	C827.089600,1431.401245 827.063904,1441.532837 826.983704,1451.662964 
	C826.955688,1455.204956 825.084595,1457.311401 821.415283,1457.251953 
	C817.736511,1457.192505 816.035278,1454.971069 816.006470,1451.471069 
	C815.946533,1444.163818 815.990173,1436.855591 815.991333,1429.057861 
z"/>
<path fill="#F3D9C9" opacity="1.000000" stroke="none" 
	d="
M1191.764160,1447.221558 
	C1193.604370,1450.193115 1195.237427,1452.864136 1196.833374,1455.474365 
	C1192.998535,1459.473389 1189.583740,1460.037231 1186.898804,1457.276123 
	C1183.708496,1453.995117 1184.571533,1448.532227 1189.260254,1443.896729 
	C1190.045410,1444.930786 1190.801147,1445.925903 1191.764160,1447.221558 
z"/>
<path fill="#F3D9C9" opacity="1.000000" stroke="none" 
	d="
M1187.933105,1425.833984 
	C1189.136230,1423.621826 1190.262939,1421.679565 1191.800659,1420.151001 
	C1192.025146,1419.927856 1195.028687,1421.445801 1195.342285,1422.555176 
	C1196.499634,1426.648926 1194.430664,1429.695312 1190.657959,1432.672485 
	C1189.664795,1430.277710 1188.826904,1428.257568 1187.933105,1425.833984 
z"/>
<path fill="#F3D9C9" opacity="1.000000" stroke="none" 
	d="
M1346.376465,1445.050293 
	C1346.607178,1438.937134 1347.262817,1432.907104 1347.918579,1426.877075 
	C1348.403442,1426.872559 1348.888306,1426.868164 1349.373169,1426.863770 
	C1350.537476,1432.719971 1351.701782,1438.576294 1353.005371,1445.133423 
	C1350.669800,1445.133423 1348.735718,1445.133423 1346.376465,1445.050293 
z"/>
</svg>